<?xml version="1.0" encoding="UTF-8"?>
<svg xmlns="http://www.w3.org/2000/svg" xmlns:xlink="http://www.w3.org/1999/xlink" viewBox="0 0 1448.86 672.51">
  <defs>
    <style>
      .cls-1 {
        clip-path: url(#clippath-6);
      }

      .cls-2 {
        clip-path: url(#clippath-7);
      }

      .cls-3 {
        clip-path: url(#clippath-4);
      }

      .cls-4 {
        fill: #ac6f57;
      }

      .cls-5 {
        fill: #a8a99a;
      }

      .cls-6 {
        fill: none;
      }

      .cls-7 {
        clip-path: url(#clippath-1);
      }

      .cls-8 {
        fill: #dba17f;
      }

      .cls-9 {
        fill: #969da2;
      }

      .cls-10 {
        isolation: isolate;
      }

      .cls-11 {
        clip-path: url(#clippath-5);
      }

      .cls-12 {
        fill: #927382;
      }

      .cls-13 {
        clip-path: url(#clippath-3);
      }

      .cls-14 {
        fill: #d7b5b9;
      }

      .cls-15 {
        mix-blend-mode: multiply;
      }

      .cls-16 {
        fill: #e9dfd4;
      }

      .cls-17 {
        clip-path: url(#clippath-2);
      }

      .cls-18 {
        fill: #898973;
      }

      .cls-19 {
        fill: #5f5f67;
      }

      .cls-20 {
        clip-path: url(#clippath);
      }

      .cls-21 {
        fill: #ccb9a1;
      }
    </style>
    <clipPath id="clippath">
      <rect class="cls-6" x=".57" y="582.66" width="327.71" height="89.57"/>
    </clipPath>
    <clipPath id="clippath-1">
      <rect class="cls-6" x=".57" y="582.66" width="327.71" height="89.57"/>
    </clipPath>
    <clipPath id="clippath-2">
      <rect class="cls-6" x="1144.47" y="610.19" width="114.61" height="62.18"/>
    </clipPath>
    <clipPath id="clippath-3">
      <rect class="cls-6" x="1144.47" y="610.19" width="114.61" height="62.18"/>
    </clipPath>
    <clipPath id="clippath-4">
      <rect class="cls-6" x="1072.96" y="610.19" width="66.51" height="62.18"/>
    </clipPath>
    <clipPath id="clippath-5">
      <rect class="cls-6" x="1072.96" y="610.19" width="66.51" height="62.18"/>
    </clipPath>
    <clipPath id="clippath-6">
      <rect class="cls-6" x="331.99" y="582.66" width="63.01" height="89.71"/>
    </clipPath>
    <clipPath id="clippath-7">
      <rect class="cls-6" x="331.99" y="582.66" width="63.01" height="89.71"/>
    </clipPath>
  </defs>
  <g class="cls-10">
    <g id="Layer_2" data-name="Layer 2">
      <g id="Layer_1-2" data-name="Layer 1">
        <g id="_23-24" data-name="23-24">
          <rect class="cls-4" x="293.49" y="145.27" width="131.38" height="39.88"/>
          <path class="cls-16" d="M338.1,153.57h41.44c6.85,0,12.4,5.19,12.4,11.59s-5.55,11.59-12.4,11.59h-41.44c-6.85,0-12.4-5.19-12.4-11.59s5.55-11.59,12.4-11.59"/>
          <path d="M338.53,168.26l3.32-2.54c1.24-.96,1.73-1.47,1.73-2.24s-.56-1.21-1.34-1.21-1.3.4-2.04,1.25l-1.54-1.16c.99-1.25,1.94-1.93,3.72-1.93,2.06,0,3.43,1.13,3.43,2.88v.03c0,1.56-.86,2.33-2.62,3.61l-1.63,1.17h4.35v1.77h-7.38v-1.62Z"/>
          <path d="M347.24,168.44l1.51-1.34c.69.72,1.4,1.12,2.41,1.12.83,0,1.41-.44,1.41-1.13v-.03c0-.76-.73-1.19-1.95-1.19h-.92l-.34-1.31,2.38-2.24h-3.92v-1.76h6.74v1.55l-2.52,2.25c1.35.21,2.68.88,2.68,2.61v.03c0,1.76-1.37,3.05-3.59,3.05-1.8,0-3.03-.67-3.89-1.61"/>
          <rect x="356.25" y="164.79" width="4.39" height="1.94"/>
          <path d="M362.04,168.26l3.32-2.54c1.24-.96,1.73-1.47,1.73-2.24s-.56-1.21-1.34-1.21-1.3.4-2.04,1.25l-1.54-1.16c.99-1.25,1.94-1.93,3.72-1.93,2.06,0,3.43,1.13,3.43,2.88v.03c0,1.56-.86,2.33-2.62,3.61l-1.63,1.17h4.35v1.77h-7.38v-1.62Z"/>
          <path d="M375.67,167.87h-4.87l-.35-1.45,5.47-5.93h1.85v5.71h1.34v1.66h-1.34v2.01h-2.09v-2.01ZM375.67,166.21v-2.9l-2.65,2.9h2.65Z"/>
        </g>
        <g id="GR45">
          <polygon class="cls-5" points="102.32 140.84 .06 140.8 .05 172.99 .02 229.55 0 261.75 81.34 261.78 81.35 229.59 102.27 229.6 102.32 140.84"/>
          <path class="cls-16" d="M31.15,179.96h41.44c6.85,0,12.4,5.19,12.4,11.59s-5.55,11.59-12.4,11.59H31.15c-6.85,0-12.4-5.19-12.4-11.59s5.55-11.59,12.4-11.59"/>
          <path d="M32.51,191.64v-.03c0-2.65,2.21-4.82,5.23-4.82,1.79,0,2.88.45,3.92,1.28l-1.38,1.56c-.77-.6-1.45-.94-2.61-.94-1.6,0-2.86,1.32-2.86,2.9v.03c0,1.7,1.25,2.96,3.02,2.96.8,0,1.51-.19,2.07-.56v-1.33h-2.21v-1.77h4.33v4.05c-1.02.81-2.44,1.48-4.26,1.48-3.11,0-5.24-2.04-5.24-4.8"/>
          <path d="M44.11,186.95h4.56c1.27,0,2.25.33,2.9.95.56.52.85,1.25.85,2.13v.03c0,1.51-.87,2.45-2.14,2.89l2.43,3.33h-2.56l-2.14-2.98h-1.72v2.98h-2.2v-9.33ZM48.52,191.48c1.07,0,1.68-.53,1.68-1.32v-.02c0-.88-.66-1.33-1.73-1.33h-2.18v2.68h2.22Z"/>
          <path d="M58.87,194.26h-4.87l-.36-1.45,5.47-5.93h1.85v5.71h1.34v1.66h-1.34v2.01h-2.1v-2.01ZM58.87,192.6v-2.9l-2.65,2.9h2.65Z"/>
          <path d="M63.62,195.03l1.32-1.48c.75.64,1.49,1.02,2.38,1.02,1.02,0,1.67-.47,1.67-1.29v-.03c0-.8-.73-1.27-1.77-1.27-.63,0-1.2.16-1.67.35l-1.27-.79.29-4.59h6.12v1.8h-4.25l-.12,1.61c.4-.09.76-.16,1.31-.16,1.94,0,3.49.88,3.49,2.98v.03c0,1.97-1.5,3.22-3.79,3.22-1.6,0-2.77-.53-3.73-1.4"/>
        </g>
        <g id="_20-21" data-name="20-21">
          <rect class="cls-18" x="481.45" y="145.36" width="148.17" height="39.88"/>
          <path class="cls-16" d="M534.81,154.12h41.44c6.85,0,12.4,5.19,12.4,11.59s-5.55,11.59-12.4,11.59h-41.44c-6.85,0-12.4-5.19-12.4-11.59s5.55-11.59,12.4-11.59"/>
          <path d="M536.26,168.81l3.32-2.54c1.24-.96,1.72-1.47,1.72-2.24s-.56-1.21-1.34-1.21-1.29.4-2.03,1.25l-1.54-1.16c.99-1.25,1.94-1.93,3.72-1.93,2.06,0,3.43,1.13,3.43,2.88v.03c0,1.56-.86,2.33-2.62,3.61l-1.63,1.17h4.35v1.77h-7.38v-1.62Z"/>
          <path d="M545.2,165.8v-.03c0-2.71,1.8-4.82,4.44-4.82s4.42,2.09,4.42,4.79v.03c0,2.7-1.78,4.82-4.45,4.82s-4.41-2.09-4.41-4.8M551.81,165.8v-.03c0-1.69-.88-2.97-2.2-2.97s-2.16,1.24-2.16,2.94v.03c0,1.7.87,2.97,2.19,2.97s2.17-1.25,2.17-2.94"/>
          <rect x="555.53" y="165.33" width="4.39" height="1.94"/>
          <path d="M561.32,168.81l3.32-2.54c1.24-.96,1.72-1.47,1.72-2.24s-.56-1.21-1.34-1.21-1.29.4-2.03,1.25l-1.54-1.16c.99-1.25,1.94-1.93,3.72-1.93,2.06,0,3.43,1.13,3.43,2.88v.03c0,1.56-.86,2.33-2.62,3.61l-1.63,1.17h4.35v1.77h-7.38v-1.62Z"/>
          <polygon points="572.03 163.12 570.29 163.52 569.83 161.85 572.69 161.05 574.2 161.05 574.2 170.44 572.03 170.44 572.03 163.12"/>
        </g>
        <g id="_30-31" data-name="30-31">
          <rect class="cls-18" x="387.83" y="227.92" width="122.6" height="39.88"/>
          <path class="cls-16" d="M430.05,236.27h41.44c6.85,0,12.4,5.19,12.4,11.59s-5.55,11.59-12.4,11.59h-41.44c-6.85,0-12.4-5.19-12.4-11.59s5.55-11.59,12.4-11.59"/>
          <path d="M431.44,251.13l1.51-1.34c.69.72,1.4,1.12,2.41,1.12.83,0,1.41-.44,1.41-1.13v-.03c0-.76-.73-1.19-1.95-1.19h-.92l-.34-1.3,2.38-2.24h-3.92v-1.76h6.74v1.55l-2.52,2.25c1.35.21,2.68.88,2.68,2.61v.03c0,1.76-1.37,3.05-3.59,3.05-1.8,0-3.03-.67-3.89-1.61"/>
          <path d="M440.5,247.95v-.03c0-2.7,1.8-4.82,4.44-4.82s4.42,2.09,4.42,4.79v.03c0,2.7-1.78,4.82-4.45,4.82s-4.41-2.09-4.41-4.8M447.11,247.95v-.03c0-1.69-.88-2.97-2.2-2.97s-2.16,1.24-2.16,2.94v.03c0,1.71.87,2.97,2.19,2.97s2.17-1.25,2.17-2.94"/>
          <rect x="450.83" y="247.48" width="4.39" height="1.94"/>
          <path d="M456.33,251.13l1.51-1.34c.69.72,1.4,1.12,2.41,1.12.83,0,1.41-.44,1.41-1.13v-.03c0-.76-.73-1.19-1.95-1.19h-.92l-.34-1.3,2.38-2.24h-3.92v-1.76h6.74v1.55l-2.52,2.25c1.35.21,2.68.88,2.68,2.61v.03c0,1.76-1.37,3.05-3.59,3.05-1.8,0-3.03-.67-3.89-1.61"/>
          <polygon points="467.17 245.27 465.43 245.67 464.97 243.99 467.83 243.2 469.33 243.2 469.33 252.59 467.17 252.59 467.17 245.27"/>
        </g>
        <g id="_18-19" data-name="18-19">
          <rect class="cls-8" x="707.29" y="145.29" width="105.71" height="39.9"/>
          <path class="cls-16" d="M739.42,154.12h41.44c6.85,0,12.4,5.19,12.4,11.59s-5.55,11.59-12.4,11.59h-41.44c-6.85,0-12.4-5.19-12.4-11.59s5.55-11.59,12.4-11.59"/>
          <polygon points="744.79 163.12 743.05 163.52 742.59 161.85 745.45 161.05 746.95 161.05 746.95 170.44 744.79 170.44 744.79 163.12"/>
          <path d="M748.9,167.88v-.03c0-1.13.56-1.8,1.61-2.25-.77-.44-1.27-1.04-1.27-2.04v-.03c0-1.42,1.4-2.56,3.5-2.56s3.5,1.12,3.5,2.56v.03c0,1-.49,1.6-1.27,2.04,1.01.49,1.61,1.09,1.61,2.2v.03c0,1.73-1.64,2.74-3.85,2.74s-3.85-1.06-3.85-2.69M754.47,167.72v-.03c0-.72-.73-1.14-1.72-1.14s-1.72.42-1.72,1.14v.03c0,.64.64,1.16,1.72,1.16s1.72-.5,1.72-1.16M754.17,163.79v-.03c0-.57-.53-1.09-1.42-1.09s-1.42.5-1.42,1.08v.03c0,.65.56,1.15,1.42,1.15s1.42-.48,1.42-1.13"/>
          <rect x="757.94" y="165.33" width="4.39" height="1.94"/>
          <polygon points="765.14 163.12 763.4 163.52 762.94 161.85 765.81 161.05 767.3 161.05 767.3 170.44 765.14 170.44 765.14 163.12"/>
          <path d="M774.99,166.61c-.51.4-1.17.64-2.03.64-2.16,0-3.56-1.12-3.56-3.01v-.03c0-1.88,1.55-3.27,3.8-3.27,1.34,0,2.12.31,2.88,1.01.72.67,1.19,1.68,1.19,3.52v.03c0,3.02-1.53,5.09-4.36,5.09-1.45,0-2.44-.45-3.28-1.11l1.15-1.56c.73.55,1.34.8,2.18.8,1.51,0,1.94-1.32,2.03-2.12M775.03,164.16v-.03c0-.83-.66-1.43-1.75-1.43s-1.7.59-1.7,1.41v.03c0,.83.66,1.4,1.74,1.4s1.71-.59,1.71-1.39"/>
        </g>
        <g id="_39-40" data-name="39-40">
          <rect class="cls-4" x="1128.85" y="310.76" width="119.06" height="39.9"/>
          <path class="cls-16" d="M1164.04,319.12h41.44c6.85,0,12.4,5.19,12.4,11.59s-5.55,11.59-12.4,11.59h-41.44c-6.85,0-12.4-5.19-12.4-11.59s5.55-11.59,12.4-11.59"/>
          <path d="M1163.2,333.99l1.51-1.35c.68.72,1.39,1.12,2.41,1.12.83,0,1.41-.44,1.41-1.13v-.03c0-.76-.73-1.19-1.95-1.19h-.92l-.34-1.3,2.38-2.24h-3.92v-1.76h6.74v1.55l-2.52,2.25c1.35.21,2.68.88,2.68,2.61v.03c0,1.76-1.37,3.05-3.59,3.05-1.8,0-3.03-.67-3.89-1.61"/>
          <path d="M1177.81,331.61c-.51.4-1.17.64-2.03.64-2.16,0-3.56-1.12-3.56-3.01v-.02c0-1.88,1.55-3.27,3.8-3.27,1.34,0,2.12.31,2.88,1.01.72.66,1.19,1.68,1.19,3.52v.03c0,3.02-1.53,5.09-4.36,5.09-1.45,0-2.44-.46-3.28-1.11l1.15-1.56c.73.54,1.34.8,2.18.8,1.51,0,1.94-1.32,2.03-2.12M1177.85,329.16v-.03c0-.83-.66-1.43-1.75-1.43s-1.7.59-1.7,1.41v.03c0,.83.66,1.4,1.74,1.4s1.71-.58,1.71-1.39"/>
          <rect x="1181.56" y="330.33" width="4.39" height="1.94"/>
          <path d="M1192.33,333.42h-4.87l-.35-1.45,5.47-5.93h1.85v5.71h1.34v1.66h-1.34v2.01h-2.09v-2.01ZM1192.33,331.76v-2.91l-2.65,2.91h2.65Z"/>
          <path d="M1197.23,330.8v-.03c0-2.7,1.8-4.82,4.44-4.82s4.42,2.09,4.42,4.79v.03c0,2.71-1.78,4.82-4.45,4.82s-4.41-2.09-4.41-4.8M1203.84,330.8v-.03c0-1.69-.88-2.97-2.2-2.97s-2.16,1.24-2.16,2.94v.03c0,1.71.87,2.97,2.19,2.97s2.17-1.25,2.17-2.94"/>
        </g>
        <g id="_47-48" data-name="47-48">
          <rect class="cls-18" x="489.84" y="310.57" width="139.69" height="39.88"/>
          <path class="cls-16" d="M537.49,318.78h41.44c6.85,0,12.4,5.19,12.4,11.59s-5.55,11.59-12.4,11.59h-41.44c-6.85,0-12.4-5.19-12.4-11.59s5.55-11.59,12.4-11.59"/>
          <path d="M542.7,333.08h-4.87l-.35-1.45,5.47-5.93h1.85v5.71h1.34v1.66h-1.34v2.01h-2.09v-2.01ZM542.7,331.42v-2.91l-2.65,2.91h2.65Z"/>
          <polygon points="552.07 327.54 547.38 327.54 547.38 325.77 554.56 325.77 554.56 327.32 550.09 335.1 547.61 335.1 552.07 327.54"/>
          <rect x="555.51" y="330" width="4.39" height="1.94"/>
          <path d="M566.28,333.08h-4.87l-.35-1.45,5.47-5.93h1.85v5.71h1.34v1.66h-1.34v2.01h-2.09v-2.01ZM566.28,331.42v-2.91l-2.65,2.91h2.65Z"/>
          <path d="M571.05,332.54v-.03c0-1.13.56-1.8,1.61-2.25-.77-.44-1.27-1.04-1.27-2.04v-.03c0-1.42,1.4-2.56,3.5-2.56s3.5,1.12,3.5,2.56v.03c0,1-.49,1.6-1.27,2.04,1.01.49,1.61,1.09,1.61,2.2v.03c0,1.73-1.64,2.74-3.85,2.74s-3.85-1.07-3.85-2.69M576.62,332.38v-.03c0-.72-.73-1.14-1.72-1.14s-1.72.42-1.72,1.14v.03c0,.64.64,1.16,1.72,1.16s1.72-.5,1.72-1.16M576.32,328.45v-.03c0-.58-.53-1.09-1.42-1.09s-1.42.51-1.42,1.08v.03c0,.65.56,1.15,1.42,1.15s1.42-.48,1.42-1.13"/>
        </g>
        <g id="_56-57" data-name="56-57">
          <rect class="cls-18" x="483.26" y="393.18" width="146.23" height="39.88"/>
          <path class="cls-16" d="M534.69,401.39h41.44c6.85,0,12.4,5.19,12.4,11.59s-5.55,11.59-12.4,11.59h-41.44c-6.85,0-12.4-5.19-12.4-11.59s5.55-11.59,12.4-11.59"/>
          <path d="M535.25,416.47l1.33-1.48c.75.64,1.49,1.01,2.38,1.01,1.02,0,1.67-.47,1.67-1.29v-.03c0-.8-.73-1.27-1.77-1.27-.63,0-1.2.16-1.67.34l-1.27-.78.29-4.59h6.12v1.8h-4.25l-.11,1.61c.4-.09.76-.16,1.31-.16,1.94,0,3.49.88,3.49,2.98v.03c0,1.97-1.5,3.23-3.79,3.23-1.6,0-2.76-.53-3.73-1.4"/>
          <path d="M545.55,416.87c-.73-.68-1.19-1.68-1.19-3.53v-.03c0-2.88,1.4-5.09,4.38-5.09,1.35,0,2.23.37,3.12,1.03l-1.15,1.59c-.66-.47-1.19-.75-2.04-.75-1.49,0-1.93,1.35-2.01,2.16.53-.33,1.15-.6,2.06-.6,1.98,0,3.51,1.03,3.51,2.97v.03c0,1.91-1.64,3.23-3.8,3.23-1.3,0-2.18-.35-2.88-1M550.06,414.73v-.03c0-.79-.66-1.36-1.74-1.36s-1.71.56-1.71,1.35v.03c0,.79.65,1.39,1.73,1.39s1.71-.57,1.71-1.37"/>
          <rect x="553.74" y="412.6" width="4.39" height="1.94"/>
          <path d="M559.45,416.47l1.33-1.48c.75.64,1.49,1.01,2.38,1.01,1.02,0,1.67-.47,1.67-1.29v-.03c0-.8-.73-1.27-1.77-1.27-.63,0-1.2.16-1.67.34l-1.27-.78.29-4.59h6.12v1.8h-4.25l-.11,1.61c.4-.09.76-.16,1.31-.16,1.94,0,3.49.88,3.49,2.98v.03c0,1.97-1.5,3.23-3.79,3.23-1.6,0-2.77-.53-3.74-1.4"/>
          <polygon points="573.03 410.15 568.34 410.15 568.34 408.38 575.52 408.38 575.52 409.93 571.05 417.7 568.57 417.7 573.03 410.15"/>
        </g>
        <g id="_73-74" data-name="73-74">
          <rect class="cls-12" x="382.27" y="475.73" width="102.62" height="39.88"/>
          <path class="cls-16" d="M412.86,484.05h41.44c6.85,0,12.4,5.19,12.4,11.59s-5.55,11.59-12.4,11.59h-41.44c-6.85,0-12.4-5.19-12.4-11.59s5.55-11.59,12.4-11.59"/>
          <polygon points="419.23 492.82 414.54 492.82 414.54 491.04 421.72 491.04 421.72 492.59 417.25 500.37 414.77 500.37 419.23 492.82"/>
          <path d="M422.64,498.92l1.51-1.35c.69.72,1.4,1.12,2.41,1.12.83,0,1.41-.44,1.41-1.13v-.03c0-.76-.73-1.19-1.95-1.19h-.92l-.34-1.3,2.38-2.24h-3.92v-1.76h6.74v1.55l-2.52,2.25c1.35.21,2.68.88,2.68,2.61v.03c0,1.76-1.37,3.05-3.59,3.05-1.8,0-3.03-.67-3.89-1.61"/>
          <rect x="431.65" y="495.27" width="4.39" height="1.94"/>
          <polygon points="441.83 492.82 437.15 492.82 437.15 491.04 444.33 491.04 444.33 492.59 439.85 500.37 437.37 500.37 441.83 492.82"/>
          <path d="M449.45,498.36h-4.87l-.35-1.45,5.47-5.93h1.85v5.71h1.34v1.66h-1.34v2.01h-2.09v-2.01ZM449.45,496.69v-2.91l-2.65,2.91h2.65Z"/>
        </g>
        <g id="_58-59" data-name="58-59">
          <rect class="cls-14" x="707.16" y="393.22" width="122.92" height="39.9"/>
          <path class="cls-16" d="M748.87,401.34h41.44c6.85,0,12.4,5.19,12.4,11.59s-5.55,11.59-12.4,11.59h-41.44c-6.85,0-12.4-5.19-12.4-11.59s5.55-11.59,12.4-11.59"/>
          <path d="M749.17,416.42l1.33-1.48c.75.64,1.49,1.02,2.38,1.02,1.02,0,1.67-.47,1.67-1.29v-.03c0-.8-.73-1.27-1.77-1.27-.63,0-1.2.16-1.67.35l-1.27-.79.29-4.59h6.12v1.8h-4.24l-.12,1.61c.4-.09.76-.16,1.31-.16,1.94,0,3.49.88,3.49,2.98v.03c0,1.97-1.5,3.22-3.79,3.22-1.6,0-2.77-.53-3.74-1.4"/>
          <path d="M758.16,415.1v-.03c0-1.13.56-1.8,1.61-2.25-.77-.44-1.27-1.04-1.27-2.04v-.03c0-1.42,1.4-2.56,3.5-2.56s3.5,1.12,3.5,2.56v.03c0,1-.49,1.6-1.27,2.04,1.01.49,1.61,1.09,1.61,2.2v.03c0,1.73-1.64,2.74-3.85,2.74s-3.85-1.07-3.85-2.69M763.73,414.94v-.03c0-.72-.73-1.15-1.72-1.15s-1.72.42-1.72,1.15v.03c0,.64.64,1.16,1.72,1.16s1.72-.5,1.72-1.16M763.43,411.01v-.03c0-.57-.53-1.09-1.42-1.09s-1.42.51-1.42,1.08v.03c0,.65.56,1.15,1.42,1.15s1.42-.48,1.42-1.13"/>
          <rect x="767.2" y="412.56" width="4.39" height="1.94"/>
          <path d="M772.91,416.42l1.33-1.48c.75.64,1.49,1.02,2.38,1.02,1.02,0,1.67-.47,1.67-1.29v-.03c0-.8-.73-1.27-1.77-1.27-.63,0-1.2.16-1.67.35l-1.27-.79.29-4.59h6.12v1.8h-4.24l-.12,1.61c.4-.09.76-.16,1.31-.16,1.94,0,3.49.88,3.49,2.98v.03c0,1.97-1.5,3.22-3.79,3.22-1.6,0-2.76-.53-3.73-1.4"/>
          <path d="M787.57,413.83c-.51.4-1.17.64-2.03.64-2.16,0-3.56-1.12-3.56-3.01v-.03c0-1.88,1.55-3.26,3.8-3.26,1.34,0,2.12.31,2.88,1.01.72.67,1.19,1.68,1.19,3.52v.03c0,3.03-1.53,5.09-4.36,5.09-1.45,0-2.44-.45-3.28-1.1l1.15-1.56c.73.54,1.34.8,2.18.8,1.51,0,1.94-1.32,2.03-2.12M787.62,411.38v-.03c0-.83-.66-1.43-1.75-1.43s-1.7.59-1.7,1.41v.03c0,.83.66,1.4,1.74,1.4s1.71-.59,1.71-1.39"/>
        </g>
        <g id="WR1-2">
          <rect class="cls-4" x="935.05" y="583.01" width="95.73" height="89.47"/>
          <path class="cls-16" d="M961.8,616.06h41.44c6.85,0,12.4,5.19,12.4,11.59s-5.55,11.59-12.4,11.59h-41.44c-6.85,0-12.4-5.19-12.4-11.59s5.55-11.59,12.4-11.59"/>
          <polygon points="959.47 623.05 961.83 623.05 963.89 629.36 966.13 623.02 968.01 623.02 970.25 629.36 972.31 623.05 974.6 623.05 971.2 632.44 969.29 632.44 967.04 626.34 964.79 632.44 962.88 632.44 959.47 623.05"/>
          <path d="M976.21,623.05h4.56c1.27,0,2.25.33,2.9.94.56.52.85,1.25.85,2.13v.03c0,1.51-.87,2.45-2.14,2.89l2.43,3.33h-2.56l-2.14-2.98h-1.72v2.98h-2.2v-9.32ZM980.63,627.58c1.07,0,1.68-.53,1.68-1.32v-.03c0-.88-.66-1.33-1.73-1.33h-2.18v2.68h2.22Z"/>
          <polygon points="987.84 625.06 986.11 625.46 985.65 623.78 988.51 622.98 990.01 622.98 990.01 632.37 987.84 632.37 987.84 625.06"/>
          <rect x="992.02" y="627.27" width="4.39" height="1.94"/>
          <path d="M997.82,630.75l3.32-2.54c1.24-.96,1.73-1.47,1.73-2.24s-.56-1.21-1.34-1.21-1.3.4-2.04,1.25l-1.54-1.16c.99-1.25,1.94-1.93,3.72-1.93,2.06,0,3.43,1.13,3.43,2.88v.03c0,1.56-.86,2.33-2.62,3.61l-1.63,1.17h4.35v1.77h-7.38v-1.62Z"/>
        </g>
        <g id="GO56">
          <rect class="cls-4" x="1320.73" y="433.96" width="128.05" height="67.92"/>
          <path class="cls-16" d="M1364.01,455.24h41.44c6.85,0,12.4,5.19,12.4,11.59s-5.55,11.59-12.4,11.59h-41.44c-6.85,0-12.4-5.19-12.4-11.59s5.55-11.59,12.4-11.59"/>
          <path d="M1364.66,466.92v-.03c0-2.65,2.21-4.82,5.23-4.82,1.79,0,2.88.45,3.92,1.28l-1.38,1.56c-.77-.6-1.45-.94-2.61-.94-1.6,0-2.86,1.32-2.86,2.9v.03c0,1.71,1.25,2.96,3.02,2.96.8,0,1.51-.19,2.06-.56v-1.33h-2.21v-1.77h4.33v4.05c-1.02.81-2.44,1.48-4.26,1.48-3.11,0-5.24-2.04-5.24-4.8"/>
          <path d="M1375.82,466.92v-.03c0-2.65,2.23-4.82,5.31-4.82s5.29,2.14,5.29,4.79v.03c0,2.65-2.23,4.82-5.31,4.82s-5.28-2.14-5.28-4.8M1384.13,466.92v-.03c0-1.6-1.26-2.93-3.02-2.93s-2.99,1.3-2.99,2.9v.03c0,1.6,1.25,2.93,3.02,2.93s3-1.31,3-2.91"/>
          <path d="M1387.77,470.32l1.33-1.48c.75.64,1.49,1.02,2.38,1.02,1.02,0,1.67-.47,1.67-1.29v-.03c0-.8-.73-1.27-1.77-1.27-.63,0-1.2.16-1.66.35l-1.27-.79.29-4.59h6.12v1.8h-4.25l-.12,1.61c.4-.09.76-.16,1.31-.16,1.94,0,3.49.88,3.49,2.98v.03c0,1.97-1.5,3.22-3.79,3.22-1.6,0-2.76-.53-3.73-1.4"/>
          <path d="M1398.08,470.72c-.73-.68-1.18-1.68-1.18-3.53v-.03c0-2.88,1.4-5.09,4.38-5.09,1.35,0,2.23.37,3.12,1.02l-1.16,1.59c-.66-.47-1.18-.74-2.04-.74-1.5,0-1.94,1.35-2.01,2.16.52-.33,1.15-.6,2.06-.6,1.98,0,3.51,1.03,3.51,2.97v.03c0,1.91-1.64,3.23-3.8,3.23-1.3,0-2.18-.35-2.88-1M1402.58,468.59v-.03c0-.79-.65-1.36-1.74-1.36s-1.71.56-1.71,1.35v.03c0,.79.65,1.39,1.74,1.39s1.71-.58,1.71-1.37"/>
        </g>
        <g id="GO44">
          <rect class="cls-4" x="1286.81" y="61.56" width="161.7" height="66.55"/>
          <path class="cls-16" d="M1348.05,83.25h41.44c6.85,0,12.4,5.19,12.4,11.59s-5.55,11.59-12.4,11.59h-41.44c-6.85,0-12.4-5.19-12.4-11.59s5.55-11.59,12.4-11.59"/>
          <path d="M1348.08,94.93v-.03c0-2.65,2.21-4.82,5.23-4.82,1.8,0,2.88.45,3.92,1.28l-1.38,1.56c-.77-.6-1.45-.94-2.61-.94-1.59,0-2.86,1.32-2.86,2.9v.03c0,1.7,1.25,2.96,3.02,2.96.8,0,1.51-.19,2.07-.56v-1.33h-2.21v-1.77h4.33v4.05c-1.02.81-2.44,1.48-4.26,1.48-3.1,0-5.24-2.04-5.24-4.8"/>
          <path d="M1359.24,94.93v-.03c0-2.65,2.24-4.82,5.31-4.82s5.29,2.14,5.29,4.79v.03c0,2.65-2.24,4.82-5.32,4.82s-5.29-2.14-5.29-4.8M1367.55,94.93v-.03c0-1.6-1.25-2.93-3.02-2.93s-2.99,1.3-2.99,2.9v.03c0,1.6,1.25,2.93,3.02,2.93s2.99-1.3,2.99-2.9"/>
          <path d="M1376.25,97.55h-4.87l-.36-1.45,5.47-5.93h1.85v5.71h1.34v1.66h-1.34v2.01h-2.1v-2.01ZM1376.25,95.88v-2.9l-2.65,2.9h2.65Z"/>
          <path d="M1386.06,97.55h-4.87l-.36-1.45,5.47-5.93h1.85v5.71h1.34v1.66h-1.34v2.01h-2.1v-2.01ZM1386.06,95.88v-2.9l-2.65,2.9h2.65Z"/>
        </g>
        <g id="_34-36" data-name="34-36">
          <rect class="cls-18" x="802.12" y="228" width="212.05" height="39.9"/>
          <path class="cls-16" d="M868.6,236.36h69.9c6.85,0,12.4,5.19,12.4,11.59s-5.55,11.59-12.4,11.59h-69.9c-6.85,0-12.4-5.19-12.4-11.59s5.55-11.59,12.4-11.59"/>
          <path d="M882.81,251.22l1.51-1.35c.69.72,1.4,1.12,2.41,1.12.83,0,1.41-.44,1.41-1.13v-.03c0-.76-.73-1.19-1.95-1.19h-.92l-.34-1.3,2.38-2.24h-3.92v-1.76h6.74v1.55l-2.52,2.25c1.35.21,2.68.88,2.68,2.61v.03c0,1.76-1.37,3.05-3.59,3.05-1.8,0-3.03-.67-3.89-1.61"/>
          <path d="M896.78,250.66h-4.87l-.35-1.45,5.47-5.93h1.85v5.71h1.34v1.67h-1.34v2.01h-2.09v-2.01ZM896.78,249v-2.9l-2.65,2.9h2.65Z"/>
          <rect x="901.63" y="247.57" width="4.39" height="1.94"/>
          <path d="M907.12,251.22l1.51-1.35c.69.72,1.4,1.12,2.41,1.12.83,0,1.41-.44,1.41-1.13v-.03c0-.76-.73-1.19-1.95-1.19h-.92l-.34-1.3,2.38-2.24h-3.92v-1.76h6.74v1.55l-2.52,2.25c1.35.21,2.68.88,2.68,2.61v.03c0,1.76-1.37,3.05-3.59,3.05-1.8,0-3.03-.67-3.89-1.61"/>
          <path d="M917.37,251.84c-.73-.68-1.18-1.68-1.18-3.53v-.03c0-2.88,1.39-5.09,4.37-5.09,1.35,0,2.24.37,3.12,1.02l-1.16,1.59c-.66-.46-1.18-.74-2.04-.74-1.5,0-1.94,1.35-2.01,2.15.52-.33,1.15-.6,2.06-.6,1.98,0,3.51,1.03,3.51,2.97v.03c0,1.91-1.64,3.23-3.81,3.23-1.3,0-2.18-.35-2.88-1M921.87,249.7v-.03c0-.79-.65-1.36-1.74-1.36s-1.71.56-1.71,1.34v.03c0,.79.66,1.39,1.74,1.39s1.71-.58,1.71-1.37"/>
        </g>
        <g id="GO52-54">
          <rect class="cls-9" x="1320.78" y="310.6" width="128.05" height="119.71"/>
          <path class="cls-16" d="M1349.85,363.94h69.9c6.85,0,12.4,5.19,12.4,11.59s-5.55,11.59-12.4,11.59h-69.9c-6.85,0-12.4-5.19-12.4-11.59s5.55-11.59,12.4-11.59"/>
          <path d="M1352.79,375.62v-.03c0-2.65,2.21-4.82,5.23-4.82,1.8,0,2.88.45,3.92,1.28l-1.38,1.56c-.77-.6-1.45-.94-2.61-.94-1.6,0-2.86,1.32-2.86,2.9v.03c0,1.71,1.25,2.96,3.02,2.96.8,0,1.51-.19,2.07-.56v-1.33h-2.21v-1.77h4.33v4.05c-1.02.81-2.44,1.48-4.26,1.48-3.11,0-5.24-2.04-5.24-4.8"/>
          <path d="M1363.95,375.62v-.03c0-2.65,2.24-4.82,5.31-4.82s5.29,2.14,5.29,4.79v.03c0,2.65-2.24,4.82-5.32,4.82s-5.28-2.14-5.28-4.8M1372.26,375.62v-.03c0-1.6-1.25-2.93-3.02-2.93s-2.99,1.3-2.99,2.9v.03c0,1.6,1.25,2.93,3.02,2.93s2.99-1.3,2.99-2.9"/>
          <path d="M1375.91,379.02l1.32-1.48c.75.64,1.49,1.01,2.38,1.01,1.02,0,1.67-.47,1.67-1.29v-.03c0-.8-.73-1.27-1.77-1.27-.63,0-1.2.16-1.67.34l-1.27-.78.29-4.59h6.12v1.8h-4.24l-.12,1.61c.4-.09.76-.16,1.31-.16,1.94,0,3.49.88,3.49,2.98v.03c0,1.97-1.5,3.22-3.79,3.22-1.6,0-2.77-.53-3.73-1.4"/>
          <path d="M1384.82,378.63l3.32-2.54c1.24-.96,1.72-1.47,1.72-2.24s-.56-1.21-1.34-1.21-1.29.4-2.03,1.25l-1.54-1.16c.99-1.25,1.94-1.93,3.72-1.93,2.06,0,3.43,1.13,3.43,2.88v.02c0,1.56-.85,2.33-2.62,3.61l-1.63,1.17h4.35v1.77h-7.38v-1.62Z"/>
          <rect x="1393.7" y="375.16" width="4.39" height="1.94"/>
          <path d="M1399.41,379.02l1.32-1.48c.75.64,1.49,1.01,2.38,1.01,1.02,0,1.67-.47,1.67-1.29v-.03c0-.8-.73-1.27-1.77-1.27-.63,0-1.2.16-1.67.34l-1.27-.78.29-4.59h6.12v1.8h-4.24l-.12,1.61c.4-.09.76-.16,1.31-.16,1.94,0,3.49.88,3.49,2.98v.03c0,1.97-1.5,3.22-3.79,3.22-1.6,0-2.77-.53-3.73-1.4"/>
          <path d="M1413.43,378.24h-4.87l-.35-1.45,5.47-5.93h1.85v5.71h1.34v1.66h-1.34v2.01h-2.09v-2.01ZM1413.43,376.58v-2.9l-2.65,2.9h2.65Z"/>
        </g>
        <g id="GR47-51">
          <rect class="cls-9" x=".04" y="329.76" width="118.41" height="147.32"/>
          <path class="cls-16" d="M23.61,391.82h69.9c6.85,0,12.4,5.19,12.4,11.59s-5.55,11.59-12.4,11.59H23.61c-6.85,0-12.4-5.19-12.4-11.59s5.55-11.59,12.4-11.59"/>
          <path d="M29.32,403.5v-.03c0-2.65,2.21-4.82,5.23-4.82,1.8,0,2.88.45,3.92,1.27l-1.38,1.56c-.77-.6-1.45-.94-2.61-.94-1.6,0-2.86,1.32-2.86,2.9v.03c0,1.71,1.25,2.96,3.02,2.96.8,0,1.51-.19,2.07-.56v-1.33h-2.21v-1.77h4.33v4.05c-1.02.81-2.44,1.48-4.26,1.48-3.11,0-5.24-2.04-5.24-4.79"/>
          <path d="M40.92,398.82h4.56c1.27,0,2.25.33,2.91.95.56.52.85,1.25.85,2.13v.03c0,1.5-.87,2.45-2.14,2.89l2.43,3.33h-2.57l-2.14-2.98h-1.72v2.98h-2.2v-9.32ZM45.34,403.34c1.07,0,1.68-.53,1.68-1.32v-.03c0-.88-.66-1.33-1.73-1.33h-2.18v2.68h2.22Z"/>
          <path d="M55.68,406.13h-4.87l-.35-1.45,5.47-5.93h1.85v5.71h1.34v1.67h-1.34v2.01h-2.09v-2.01ZM55.68,404.46v-2.9l-2.65,2.9h2.65Z"/>
          <polygon points="65.05 400.59 60.36 400.59 60.36 398.82 67.54 398.82 67.54 400.36 63.07 408.14 60.59 408.14 65.05 400.59"/>
          <rect x="68.49" y="403.04" width="4.39" height="1.94"/>
          <path d="M74.19,406.9l1.33-1.48c.75.64,1.49,1.01,2.38,1.01,1.02,0,1.67-.47,1.67-1.29v-.03c0-.8-.73-1.27-1.77-1.27-.63,0-1.2.16-1.67.35l-1.27-.79.29-4.59h6.12v1.8h-4.24l-.12,1.61c.4-.09.76-.16,1.31-.16,1.94,0,3.49.88,3.49,2.98v.03c0,1.97-1.5,3.22-3.79,3.22-1.6,0-2.76-.53-3.73-1.4"/>
          <polygon points="85.09 400.83 83.35 401.22 82.89 399.55 85.75 398.75 87.25 398.75 87.25 408.14 85.09 408.14 85.09 400.83"/>
        </g>
        <g id="GR43">
          <rect class="cls-4" x=".08" y="72.02" width="128.35" height="65.17"/>
          <path class="cls-16" d="M30.18,93.01h69.9c6.85,0,12.4,5.19,12.4,11.59s-5.55,11.59-12.4,11.59H30.18c-6.85,0-12.4-5.19-12.4-11.59s5.55-11.59,12.4-11.59"/>
          <path d="M45.84,104.69v-.03c0-2.65,2.21-4.82,5.23-4.82,1.79,0,2.88.45,3.92,1.28l-1.38,1.56c-.77-.6-1.45-.94-2.61-.94-1.6,0-2.86,1.32-2.86,2.9v.03c0,1.71,1.25,2.96,3.02,2.96.8,0,1.51-.19,2.07-.56v-1.33h-2.21v-1.77h4.33v4.05c-1.02.81-2.44,1.48-4.26,1.48-3.11,0-5.24-2.04-5.24-4.8"/>
          <path d="M57.44,100h4.56c1.27,0,2.25.33,2.9.95.56.52.85,1.25.85,2.13v.03c0,1.51-.87,2.45-2.14,2.89l2.43,3.33h-2.56l-2.14-2.98h-1.72v2.98h-2.2v-9.32ZM61.86,104.53c1.07,0,1.68-.53,1.68-1.32v-.02c0-.88-.66-1.33-1.73-1.33h-2.18v2.68h2.22Z"/>
          <path d="M72.2,107.31h-4.87l-.36-1.45,5.47-5.93h1.85v5.71h1.34v1.66h-1.34v2.01h-2.1v-2.01ZM72.2,105.65v-2.9l-2.65,2.9h2.65Z"/>
          <path d="M76.88,107.87l1.51-1.35c.69.72,1.4,1.12,2.41,1.12.83,0,1.41-.44,1.41-1.13v-.03c0-.76-.73-1.19-1.95-1.19h-.92l-.34-1.31,2.38-2.24h-3.92v-1.76h6.74v1.55l-2.52,2.25c1.35.21,2.68.88,2.68,2.61v.03c0,1.76-1.37,3.05-3.59,3.05-1.8,0-3.03-.67-3.89-1.61"/>
        </g>
        <g id="GO46-48">
          <polygon class="cls-14" points="1286.8 128.08 1286.75 213.11 1367.6 213.15 1367.58 264.58 1448.43 264.62 1448.45 213.19 1448.45 210.65 1448.5 128.15 1286.8 128.08"/>
          <path class="cls-16" d="M1333.81,159.04h69.9c6.85,0,12.4,5.19,12.4,11.59s-5.55,11.59-12.4,11.59h-69.9c-6.85,0-12.4-5.19-12.4-11.59s5.55-11.59,12.4-11.59"/>
          <path d="M1335.98,170.72v-.03c0-2.65,2.21-4.82,5.23-4.82,1.79,0,2.88.45,3.92,1.28l-1.38,1.56c-.77-.6-1.45-.94-2.61-.94-1.6,0-2.86,1.32-2.86,2.9v.03c0,1.71,1.25,2.96,3.02,2.96.8,0,1.51-.19,2.07-.56v-1.33h-2.21v-1.77h4.33v4.05c-1.02.81-2.44,1.48-4.26,1.48-3.11,0-5.24-2.04-5.24-4.8"/>
          <path d="M1347.14,170.72v-.03c0-2.65,2.23-4.82,5.31-4.82s5.29,2.14,5.29,4.79v.03c0,2.65-2.24,4.82-5.32,4.82s-5.28-2.14-5.28-4.8M1355.45,170.72v-.03c0-1.6-1.25-2.93-3.02-2.93s-2.99,1.3-2.99,2.9v.03c0,1.6,1.25,2.93,3.02,2.93s3-1.3,3-2.9"/>
          <path d="M1364.16,173.34h-4.87l-.35-1.45,5.47-5.93h1.85v5.71h1.34v1.66h-1.34v2.01h-2.09v-2.01ZM1364.16,171.68v-2.9l-2.65,2.9h2.65Z"/>
          <path d="M1370.24,174.52c-.73-.68-1.18-1.68-1.18-3.53v-.03c0-2.88,1.4-5.09,4.38-5.09,1.35,0,2.23.37,3.12,1.03l-1.16,1.59c-.66-.47-1.18-.75-2.04-.75-1.5,0-1.94,1.35-2.01,2.16.52-.33,1.15-.6,2.06-.6,1.98,0,3.5,1.02,3.5,2.97v.03c0,1.91-1.64,3.23-3.8,3.23-1.3,0-2.18-.35-2.88-1M1374.75,172.38v-.03c0-.79-.65-1.36-1.74-1.36s-1.71.56-1.71,1.35v.03c0,.79.66,1.39,1.74,1.39s1.71-.58,1.71-1.37"/>
          <rect x="1378.43" y="170.25" width="4.39" height="1.94"/>
          <path d="M1389.19,173.34h-4.87l-.35-1.45,5.47-5.93h1.85v5.71h1.34v1.66h-1.34v2.01h-2.09v-2.01ZM1389.19,171.68v-2.9l-2.65,2.9h2.65Z"/>
          <path d="M1393.97,172.8v-.03c0-1.13.55-1.8,1.61-2.25-.77-.44-1.27-1.04-1.27-2.04v-.03c0-1.42,1.4-2.56,3.5-2.56s3.5,1.12,3.5,2.56v.03c0,1-.5,1.6-1.27,2.04,1.01.49,1.61,1.09,1.61,2.2v.03c0,1.73-1.64,2.74-3.85,2.74s-3.85-1.07-3.85-2.69M1399.54,172.64v-.03c0-.72-.72-1.15-1.72-1.15s-1.72.42-1.72,1.15v.03c0,.64.64,1.16,1.72,1.16s1.72-.5,1.72-1.16M1399.24,168.71v-.03c0-.57-.53-1.09-1.43-1.09s-1.42.5-1.42,1.08v.03c0,.65.55,1.15,1.42,1.15s1.43-.48,1.43-1.13"/>
        </g>
        <g>
          <rect class="cls-18" x="196.41" y="227.84" width="141.65" height="39.88"/>
          <rect class="cls-18" x="296.44" y="227.87" width="86.51" height="39.88"/>
          <path class="cls-16" d="M257.63,236.27h69.9c6.85,0,12.4,5.19,12.4,11.59s-5.55,11.59-12.4,11.59h-69.9c-6.85,0-12.4-5.19-12.4-11.59s5.55-11.59,12.4-11.59"/>
          <path d="M272.31,250.96l3.32-2.54c1.24-.96,1.72-1.47,1.72-2.24s-.56-1.21-1.34-1.21-1.29.4-2.03,1.25l-1.54-1.16c.99-1.25,1.94-1.93,3.72-1.93,2.06,0,3.43,1.13,3.43,2.88v.03c0,1.56-.86,2.33-2.62,3.61l-1.63,1.17h4.35v1.77h-7.38v-1.62Z"/>
          <path d="M282.43,251.74c-.73-.68-1.18-1.68-1.18-3.53v-.03c0-2.88,1.4-5.09,4.37-5.09,1.35,0,2.24.37,3.12,1.03l-1.16,1.59c-.66-.47-1.19-.75-2.04-.75-1.5,0-1.94,1.35-2.01,2.16.53-.33,1.15-.6,2.06-.6,1.98,0,3.51,1.03,3.51,2.97v.03c0,1.9-1.64,3.23-3.8,3.23-1.3,0-2.18-.35-2.88-1M286.93,249.61v-.03c0-.79-.66-1.36-1.74-1.36s-1.71.56-1.71,1.35v.03c0,.79.65,1.39,1.74,1.39s1.71-.57,1.71-1.37"/>
          <rect x="290.62" y="247.48" width="4.39" height="1.94"/>
          <path d="M296.41,250.96l3.32-2.54c1.24-.96,1.72-1.47,1.72-2.24s-.56-1.21-1.34-1.21-1.29.4-2.03,1.25l-1.54-1.16c.99-1.25,1.94-1.93,3.72-1.93,2.06,0,3.43,1.13,3.43,2.88v.03c0,1.56-.86,2.33-2.62,3.61l-1.63,1.17h4.35v1.77h-7.38v-1.62Z"/>
          <path d="M305.22,250.03v-.03c0-1.13.56-1.8,1.61-2.25-.77-.44-1.27-1.04-1.27-2.04v-.03c0-1.43,1.4-2.56,3.5-2.56s3.5,1.12,3.5,2.56v.03c0,1-.49,1.6-1.27,2.04,1.01.49,1.61,1.09,1.61,2.2v.03c0,1.73-1.64,2.74-3.85,2.74s-3.85-1.07-3.85-2.69M310.79,249.87v-.03c0-.72-.73-1.15-1.72-1.15s-1.72.42-1.72,1.15v.03c0,.64.64,1.16,1.72,1.16s1.72-.5,1.72-1.16M310.49,245.94v-.03c0-.58-.53-1.09-1.42-1.09s-1.42.51-1.42,1.08v.03c0,.65.56,1.15,1.42,1.15s1.42-.48,1.42-1.13"/>
        </g>
        <g id="_5-6" data-name="5-6">
          <rect class="cls-9" x="493.7" y="63.36" width="135.83" height="39.88"/>
          <path class="cls-16" d="M540.9,71.57h41.44c6.85,0,12.4,5.19,12.4,11.59s-5.55,11.59-12.4,11.59h-41.44c-6.85,0-12.4-5.19-12.4-11.59s5.55-11.59,12.4-11.59"/>
          <path d="M550.13,86.64l1.32-1.48c.75.64,1.49,1.02,2.38,1.02,1.02,0,1.67-.47,1.67-1.29v-.03c0-.8-.73-1.27-1.77-1.27-.63,0-1.2.16-1.67.35l-1.27-.79.29-4.59h6.12v1.8h-4.24l-.12,1.61c.4-.09.76-.16,1.31-.16,1.94,0,3.49.88,3.49,2.98v.03c0,1.97-1.5,3.22-3.79,3.22-1.6,0-2.77-.53-3.73-1.4"/>
          <rect x="559.2" y="82.78" width="4.39" height="1.94"/>
          <path d="M566.24,87.05c-.73-.68-1.18-1.68-1.18-3.53v-.03c0-2.88,1.39-5.09,4.37-5.09,1.35,0,2.24.37,3.12,1.03l-1.16,1.59c-.66-.47-1.18-.75-2.04-.75-1.5,0-1.94,1.35-2.01,2.16.52-.33,1.15-.6,2.06-.6,1.98,0,3.51,1.03,3.51,2.97v.03c0,1.91-1.64,3.23-3.81,3.23-1.3,0-2.18-.35-2.88-1M570.75,84.91v-.03c0-.79-.65-1.36-1.74-1.36s-1.71.56-1.71,1.35v.03c0,.79.66,1.39,1.74,1.39s1.71-.58,1.71-1.37"/>
        </g>
        <g id="_2" data-name="2">
          <rect class="cls-8" x="271.94" y="63.25" width="84.81" height="39.88"/>
          <path class="cls-16" d="M308.54,71.6h12.97c6.85,0,12.4,5.19,12.4,11.59s-5.55,11.59-12.4,11.59h-12.97c-6.85,0-12.4-5.19-12.4-11.59s5.55-11.59,12.4-11.59"/>
          <path d="M311.28,86.29l3.32-2.54c1.24-.96,1.72-1.47,1.72-2.24s-.56-1.21-1.34-1.21-1.3.4-2.04,1.25l-1.54-1.16c.98-1.25,1.94-1.93,3.72-1.93,2.06,0,3.43,1.13,3.43,2.88v.03c0,1.56-.85,2.33-2.62,3.61l-1.63,1.17h4.35v1.77h-7.38v-1.62Z"/>
        </g>
        <g id="_7" data-name="7">
          <rect class="cls-21" x="707.33" y="63.22" width="79.08" height="39.9"/>
          <path class="cls-16" d="M740.37,71.57h12.97c6.85,0,12.4,5.19,12.4,11.59s-5.55,11.59-12.4,11.59h-12.97c-6.85,0-12.4-5.19-12.4-11.59s5.55-11.59,12.4-11.59"/>
          <polygon points="748.1 80.33 743.41 80.33 743.41 78.56 750.59 78.56 750.59 80.1 746.12 87.88 743.64 87.88 748.1 80.33"/>
        </g>
        <g id="_8" data-name="8">
          <rect class="cls-14" x="791.1" y="63.23" width="56.26" height="39.9"/>
          <path class="cls-16" d="M812.75,71.57h12.97c6.85,0,12.4,5.19,12.4,11.59s-5.55,11.59-12.4,11.59h-12.97c-6.85,0-12.4-5.19-12.4-11.59s5.55-11.59,12.4-11.59"/>
          <path d="M815.39,85.32v-.03c0-1.13.56-1.8,1.61-2.25-.77-.44-1.27-1.04-1.27-2.04v-.03c0-1.42,1.4-2.56,3.5-2.56s3.5,1.12,3.5,2.56v.03c0,1-.49,1.6-1.27,2.04,1.01.49,1.61,1.09,1.61,2.2v.03c0,1.73-1.64,2.74-3.85,2.74s-3.85-1.06-3.85-2.69M820.96,85.16v-.03c0-.72-.73-1.14-1.72-1.14s-1.72.42-1.72,1.14v.03c0,.64.64,1.16,1.72,1.16s1.72-.5,1.72-1.16M820.66,81.24v-.03c0-.57-.53-1.09-1.42-1.09s-1.42.5-1.42,1.08v.03c0,.65.55,1.15,1.42,1.15s1.42-.48,1.42-1.13"/>
        </g>
        <g id="_9" data-name="9">
          <rect class="cls-12" x="851.72" y="63.28" width="92.84" height="39.9"/>
          <path class="cls-16" d="M891.66,71.57h12.97c6.85,0,12.4,5.19,12.4,11.59s-5.55,11.59-12.4,11.59h-12.97c-6.85,0-12.4-5.19-12.4-11.59s5.55-11.59,12.4-11.59"/>
          <path d="M899.81,84.06c-.51.4-1.17.64-2.02.64-2.17,0-3.56-1.12-3.56-3.01v-.03c0-1.88,1.56-3.27,3.81-3.27,1.34,0,2.12.31,2.88,1.01.71.67,1.18,1.68,1.18,3.52v.03c0,3.02-1.53,5.09-4.36,5.09-1.45,0-2.44-.45-3.28-1.11l1.15-1.55c.73.54,1.34.8,2.18.8,1.51,0,1.94-1.32,2.02-2.12M899.86,81.61v-.03c0-.83-.66-1.43-1.75-1.43s-1.7.59-1.7,1.41v.03c0,.83.66,1.4,1.74,1.4s1.71-.59,1.71-1.39"/>
        </g>
        <g id="H1">
          <rect class="cls-21" x="828.45" y=".02" width="103.24" height="30.68"/>
          <path class="cls-16" d="M869.61,3.77h20.93c6.84,0,12.4,5.19,12.4,11.59s-5.55,11.59-12.4,11.59h-20.93c-6.85,0-12.4-5.19-12.4-11.59s5.55-11.59,12.4-11.59"/>
          <polygon points="872.86 10.76 875.06 10.76 875.06 14.45 879.1 14.45 879.1 10.76 881.29 10.76 881.29 20.08 879.1 20.08 879.1 16.34 875.06 16.34 875.06 20.08 872.86 20.08 872.86 10.76"/>
          <polygon points="885.02 12.77 883.28 13.17 882.82 11.5 885.69 10.7 887.18 10.7 887.18 20.09 885.02 20.09 885.02 12.77"/>
        </g>
        <g id="_10" data-name="10">
          <rect class="cls-4" x="949.56" y="63.32" width="77.7" height="39.9"/>
          <path class="cls-16" d="M981.93,71.57h12.97c6.85,0,12.4,5.19,12.4,11.59s-5.55,11.59-12.4,11.59h-12.97c-6.85,0-12.4-5.19-12.4-11.59s5.55-11.59,12.4-11.59"/>
          <polygon points="982.75 80.57 981.02 80.97 980.56 79.29 983.42 78.49 984.92 78.49 984.92 87.88 982.75 87.88 982.75 80.57"/>
          <path d="M986.99,83.25v-.03c0-2.71,1.79-4.82,4.44-4.82s4.41,2.09,4.41,4.79v.03c0,2.7-1.78,4.82-4.44,4.82s-4.41-2.09-4.41-4.8M993.6,83.25v-.03c0-1.69-.88-2.97-2.2-2.97s-2.17,1.24-2.17,2.94v.03c0,1.7.87,2.97,2.2,2.97s2.17-1.25,2.17-2.94"/>
        </g>
        <g id="_11" data-name="11">
          <rect class="cls-4" x="1032.27" y="63.36" width="71.78" height="39.9"/>
          <path class="cls-16" d="M1061.67,71.57h12.97c6.85,0,12.4,5.19,12.4,11.59s-5.55,11.59-12.4,11.59h-12.97c-6.85,0-12.4-5.19-12.4-11.59s5.55-11.59,12.4-11.59"/>
          <polygon points="1064.69 80.57 1062.95 80.97 1062.49 79.29 1065.35 78.49 1066.85 78.49 1066.85 87.88 1064.69 87.88 1064.69 80.57"/>
          <polygon points="1070.69 80.57 1068.96 80.97 1068.5 79.29 1071.36 78.49 1072.86 78.49 1072.86 87.88 1070.69 87.88 1070.69 80.57"/>
        </g>
        <g id="_12" data-name="12">
          <rect class="cls-9" x="1109.05" y="63.41" width="138.99" height="39.9"/>
          <path class="cls-16" d="M1170.01,71.57h12.97c6.85,0,12.4,5.19,12.4,11.59s-5.55,11.59-12.4,11.59h-12.97c-6.85,0-12.4-5.19-12.4-11.59s5.55-11.59,12.4-11.59"/>
          <polygon points="1171.59 80.57 1169.86 80.97 1169.4 79.29 1172.26 78.49 1173.76 78.49 1173.76 87.88 1171.59 87.88 1171.59 80.57"/>
          <path d="M1175.76,86.26l3.32-2.54c1.24-.96,1.72-1.47,1.72-2.24s-.56-1.21-1.34-1.21-1.29.4-2.03,1.25l-1.54-1.16c.99-1.25,1.94-1.93,3.72-1.93,2.06,0,3.43,1.13,3.43,2.88v.03c0,1.56-.86,2.33-2.62,3.61l-1.63,1.17h4.35v1.77h-7.38v-1.62Z"/>
        </g>
        <g id="_25" data-name="25">
          <rect class="cls-5" x="196.45" y="145.22" width="91.8" height="39.88"/>
          <path class="cls-16" d="M235.87,153.71h12.97c6.85,0,12.4,5.19,12.4,11.59s-5.55,11.59-12.4,11.59h-12.97c-6.85,0-12.4-5.19-12.4-11.59s5.55-11.59,12.4-11.59"/>
          <path d="M234.13,168.4l3.32-2.54c1.24-.96,1.73-1.47,1.73-2.24s-.56-1.21-1.34-1.21-1.3.4-2.04,1.25l-1.54-1.16c.99-1.25,1.94-1.93,3.72-1.93,2.06,0,3.43,1.13,3.43,2.88v.03c0,1.56-.85,2.33-2.62,3.61l-1.63,1.17h4.35v1.77h-7.38v-1.62Z"/>
          <path d="M242.91,168.78l1.33-1.48c.75.64,1.49,1.02,2.38,1.02,1.02,0,1.67-.47,1.67-1.29v-.03c0-.8-.73-1.27-1.77-1.27-.63,0-1.2.16-1.67.35l-1.27-.79.29-4.59h6.12v1.8h-4.24l-.12,1.61c.4-.09.76-.16,1.31-.16,1.94,0,3.49.88,3.49,2.98v.03c0,1.97-1.5,3.22-3.79,3.22-1.6,0-2.76-.53-3.73-1.4"/>
        </g>
        <g id="_22" data-name="22">
          <rect class="cls-8" x="429.38" y="145.31" width="47.19" height="39.88"/>
          <path class="cls-16" d="M446.86,153.57h12.97c6.85,0,12.4,5.19,12.4,11.59s-5.55,11.59-12.4,11.59h-12.97c-6.85,0-12.4-5.19-12.4-11.59s5.55-11.59,12.4-11.59"/>
          <path d="M445.17,168.26l3.32-2.54c1.24-.96,1.73-1.47,1.73-2.24s-.56-1.21-1.34-1.21-1.3.4-2.04,1.25l-1.54-1.16c.99-1.25,1.94-1.93,3.72-1.93,2.06,0,3.43,1.13,3.43,2.88v.03c0,1.56-.85,2.33-2.62,3.61l-1.63,1.17h4.35v1.77h-7.38v-1.62Z"/>
          <path d="M454.04,168.26l3.32-2.54c1.24-.96,1.72-1.47,1.72-2.24s-.56-1.21-1.34-1.21-1.29.4-2.04,1.25l-1.54-1.16c.99-1.25,1.94-1.93,3.72-1.93,2.06,0,3.43,1.13,3.43,2.88v.03c0,1.56-.86,2.33-2.62,3.61l-1.63,1.17h4.35v1.77h-7.38v-1.62Z"/>
        </g>
        <g id="_17" data-name="17">
          <rect class="cls-12" x="818" y="145.33" width="76.41" height="39.9"/>
          <path class="cls-16" d="M849.72,154.12h12.97c6.85,0,12.4,5.19,12.4,11.59s-5.55,11.59-12.4,11.59h-12.97c-6.85,0-12.4-5.19-12.4-11.59s5.55-11.59,12.4-11.59"/>
          <polygon points="851.33 163.12 849.6 163.52 849.14 161.85 852 161.05 853.5 161.05 853.5 170.44 851.33 170.44 851.33 163.12"/>
          <polygon points="860.46 162.88 855.77 162.88 855.77 161.11 862.95 161.11 862.95 162.66 858.48 170.44 856 170.44 860.46 162.88"/>
        </g>
        <g id="_16" data-name="16">
          <rect class="cls-19" x="899.42" y="145.37" width="76.41" height="39.9"/>
          <path class="cls-16" d="M931.14,154.12h12.97c6.85,0,12.4,5.19,12.4,11.59s-5.55,11.59-12.4,11.59h-12.97c-6.85,0-12.4-5.19-12.4-11.59s5.55-11.59,12.4-11.59"/>
          <polygon points="932.44 163.12 930.71 163.52 930.25 161.85 933.11 161.05 934.61 161.05 934.61 170.44 932.44 170.44 932.44 163.12"/>
          <path d="M937.86,169.6c-.73-.68-1.18-1.68-1.18-3.53v-.03c0-2.88,1.39-5.09,4.37-5.09,1.35,0,2.24.37,3.12,1.03l-1.16,1.59c-.66-.47-1.18-.75-2.04-.75-1.5,0-1.94,1.35-2.01,2.16.52-.33,1.15-.6,2.06-.6,1.98,0,3.51,1.03,3.51,2.97v.03c0,1.91-1.64,3.23-3.81,3.23-1.3,0-2.18-.35-2.88-1M942.37,167.47v-.03c0-.79-.65-1.36-1.74-1.36s-1.71.56-1.71,1.35v.03c0,.79.66,1.39,1.74,1.39s1.71-.58,1.71-1.37"/>
        </g>
        <g id="_15" data-name="15">
          <rect class="cls-9" x="981" y="145.41" width="99.57" height="39.9"/>
          <path class="cls-16" d="M1024.22,154.12h12.97c6.85,0,12.4,5.19,12.4,11.59s-5.55,11.59-12.4,11.59h-12.97c-6.85,0-12.4-5.19-12.4-11.59s5.55-11.59,12.4-11.59"/>
          <polygon points="1025.75 163.12 1024.01 163.52 1023.55 161.85 1026.42 161.05 1027.92 161.05 1027.92 170.44 1025.75 170.44 1025.75 163.12"/>
          <path d="M1029.83,169.2l1.32-1.48c.75.64,1.49,1.02,2.38,1.02,1.02,0,1.67-.47,1.67-1.29v-.03c0-.8-.73-1.27-1.77-1.27-.63,0-1.2.16-1.67.35l-1.27-.79.29-4.59h6.12v1.8h-4.25l-.12,1.61c.4-.09.76-.16,1.31-.16,1.94,0,3.49.88,3.49,2.98v.03c0,1.97-1.5,3.22-3.79,3.22-1.6,0-2.77-.53-3.73-1.4"/>
        </g>
        <g id="_37" data-name="37">
          <rect class="cls-18" x="1019.16" y="228.07" width="87.3" height="39.9"/>
          <path class="cls-16" d="M1056.33,236.36h12.97c6.85,0,12.4,5.19,12.4,11.59s-5.55,11.59-12.4,11.59h-12.97c-6.85,0-12.4-5.19-12.4-11.59s5.55-11.59,12.4-11.59"/>
          <path d="M1054.67,251.22l1.51-1.35c.69.72,1.4,1.12,2.41,1.12.83,0,1.41-.44,1.41-1.13v-.03c0-.76-.73-1.19-1.95-1.19h-.92l-.34-1.3,2.38-2.24h-3.92v-1.76h6.74v1.55l-2.52,2.25c1.35.21,2.68.88,2.68,2.61v.03c0,1.76-1.37,3.05-3.59,3.05-1.8,0-3.03-.67-3.89-1.61"/>
          <polygon points="1068.34 245.12 1063.66 245.12 1063.66 243.35 1070.84 243.35 1070.84 244.9 1066.36 252.67 1063.88 252.67 1068.34 245.12"/>
        </g>
        <g id="_41" data-name="41">
          <rect class="cls-18" x="1068.62" y="310.72" width="55.22" height="39.9"/>
          <path class="cls-16" d="M1089.75,319.12h12.97c6.85,0,12.4,5.19,12.4,11.59s-5.55,11.59-12.4,11.59h-12.97c-6.85,0-12.4-5.19-12.4-11.59s5.55-11.59,12.4-11.59"/>
          <path d="M1094.14,333.42h-4.87l-.35-1.45,5.47-5.93h1.85v5.71h1.34v1.66h-1.34v2.01h-2.09v-2.01ZM1094.14,331.76v-2.91l-2.65,2.91h2.65Z"/>
          <polygon points="1100.53 328.13 1098.79 328.52 1098.33 326.85 1101.19 326.05 1102.69 326.05 1102.69 335.44 1100.53 335.44 1100.53 328.13"/>
        </g>
        <g id="_42" data-name="42">
          <rect class="cls-5" x="1019.12" y="310.7" width="44.73" height="39.9"/>
          <path class="cls-16" d="M1036.43,319.12h10.12c6.84,0,12.4,5.19,12.4,11.59s-5.55,11.59-12.4,11.59h-10.12c-6.85,0-12.4-5.19-12.4-11.59s5.55-11.59,12.4-11.59"/>
          <path d="M1037.82,333.42h-4.87l-.35-1.45,5.47-5.93h1.85v5.71h1.34v1.67h-1.34v2.01h-2.09v-2.01ZM1037.82,331.76v-2.9l-2.65,2.9h2.65Z"/>
          <path d="M1042.66,333.81l3.32-2.54c1.24-.96,1.72-1.47,1.72-2.24s-.56-1.21-1.34-1.21-1.29.4-2.04,1.25l-1.54-1.16c.99-1.25,1.94-1.93,3.72-1.93,2.06,0,3.43,1.13,3.43,2.88v.03c0,1.56-.86,2.33-2.62,3.61l-1.63,1.17h4.35v1.77h-7.38v-1.63Z"/>
        </g>
        <g id="_67" data-name="67">
          <rect class="cls-12" x="958.54" y="475.96" width="48.1" height="39.9"/>
          <path class="cls-16" d="M977.52,485.06h10.12c6.84,0,12.4,5.19,12.4,11.59s-5.55,11.59-12.4,11.59h-10.12c-6.85,0-12.4-5.19-12.4-11.59s5.55-11.59,12.4-11.59"/>
          <path d="M975.52,500.54c-.73-.68-1.18-1.68-1.18-3.53v-.03c0-2.88,1.4-5.09,4.38-5.09,1.35,0,2.23.37,3.12,1.03l-1.16,1.59c-.66-.47-1.18-.75-2.04-.75-1.5,0-1.94,1.35-2.01,2.16.52-.33,1.15-.6,2.06-.6,1.98,0,3.5,1.03,3.5,2.97v.03c0,1.9-1.64,3.22-3.8,3.22-1.3,0-2.18-.35-2.88-1M980.03,498.41v-.03c0-.79-.65-1.36-1.74-1.36s-1.71.56-1.71,1.35v.03c0,.79.66,1.39,1.74,1.39s1.71-.57,1.71-1.37"/>
          <polygon points="988.44 493.82 983.75 493.82 983.75 492.05 990.93 492.05 990.93 493.6 986.46 501.38 983.98 501.38 988.44 493.82"/>
        </g>
        <g id="_43" data-name="43">
          <rect class="cls-12" x="936.69" y="310.67" width="77.43" height="39.9"/>
          <path class="cls-16" d="M970.65,319.12h12.97c6.85,0,12.4,5.19,12.4,11.59s-5.55,11.59-12.4,11.59h-12.97c-6.85,0-12.4-5.19-12.4-11.59s5.55-11.59,12.4-11.59"/>
          <path d="M973.49,333.42h-4.88l-.35-1.45,5.47-5.93h1.85v5.71h1.34v1.66h-1.34v2.01h-2.09v-2.01ZM973.49,331.76v-2.91l-2.65,2.91h2.65Z"/>
          <path d="M978.16,333.99l1.51-1.35c.69.72,1.4,1.12,2.41,1.12.83,0,1.41-.44,1.41-1.13v-.03c0-.76-.73-1.19-1.95-1.19h-.92l-.34-1.3,2.38-2.24h-3.92v-1.76h6.74v1.55l-2.52,2.25c1.35.21,2.68.88,2.68,2.61v.03c0,1.76-1.37,3.05-3.59,3.05-1.8,0-3.03-.67-3.89-1.61"/>
        </g>
        <g id="_44" data-name="44">
          <rect class="cls-8" x="856.61" y="310.64" width="75.07" height="39.9"/>
          <path class="cls-16" d="M887.7,319.12h12.97c6.85,0,12.4,5.19,12.4,11.59s-5.55,11.59-12.4,11.59h-12.97c-6.85,0-12.4-5.19-12.4-11.59s5.55-11.59,12.4-11.59"/>
          <path d="M890.05,333.42h-4.87l-.35-1.45,5.47-5.93h1.85v5.71h1.34v1.66h-1.34v2.01h-2.09v-2.01ZM890.05,331.76v-2.91l-2.65,2.91h2.65Z"/>
          <path d="M899.85,333.42h-4.87l-.36-1.45,5.47-5.93h1.85v5.71h1.34v1.66h-1.34v2.01h-2.1v-2.01ZM899.85,331.76v-2.91l-2.65,2.91h2.65Z"/>
        </g>
        <g id="_45" data-name="45">
          <rect class="cls-5" x="776.42" y="310.6" width="75.07" height="39.9"/>
          <path class="cls-16" d="M807.53,319.12h12.97c6.85,0,12.4,5.19,12.4,11.59s-5.55,11.59-12.4,11.59h-12.97c-6.85,0-12.4-5.19-12.4-11.59s5.55-11.59,12.4-11.59"/>
          <path d="M810.3,333.42h-4.87l-.35-1.45,5.47-5.93h1.85v5.71h1.34v1.66h-1.34v2.01h-2.09v-2.01ZM810.3,331.76v-2.91l-2.65,2.91h2.65Z"/>
          <path d="M815.05,334.2l1.32-1.48c.75.64,1.49,1.01,2.38,1.01,1.02,0,1.67-.47,1.67-1.29v-.03c0-.8-.73-1.27-1.77-1.27-.63,0-1.2.16-1.67.34l-1.27-.78.29-4.59h6.12v1.8h-4.24l-.12,1.61c.4-.09.76-.16,1.31-.16,1.94,0,3.49.88,3.49,2.98v.03c0,1.97-1.5,3.23-3.79,3.23-1.6,0-2.77-.53-3.73-1.4"/>
        </g>
        <g id="_46" data-name="46">
          <rect class="cls-8" x="707.2" y="310.57" width="64.22" height="39.9"/>
          <path class="cls-16" d="M732.83,319.12h12.97c6.85,0,12.4,5.19,12.4,11.59s-5.55,11.59-12.4,11.59h-12.97c-6.85,0-12.4-5.19-12.4-11.59s5.55-11.59,12.4-11.59"/>
          <path d="M735.37,333.42h-4.87l-.35-1.45,5.47-5.93h1.85v5.71h1.34v1.66h-1.34v2.01h-2.09v-2.01ZM735.37,331.76v-2.91l-2.65,2.91h2.65Z"/>
          <path d="M741.45,334.6c-.73-.68-1.18-1.68-1.18-3.53v-.03c0-2.88,1.4-5.09,4.38-5.09,1.35,0,2.23.37,3.12,1.03l-1.16,1.59c-.66-.47-1.18-.75-2.04-.75-1.5,0-1.94,1.35-2.01,2.16.52-.33,1.15-.6,2.06-.6,1.98,0,3.5,1.03,3.5,2.97v.03c0,1.91-1.64,3.23-3.8,3.23-1.3,0-2.18-.35-2.88-1M745.96,332.47v-.03c0-.79-.65-1.36-1.74-1.36s-1.71.56-1.71,1.35v.03c0,.79.66,1.39,1.74,1.39s1.71-.57,1.71-1.37"/>
        </g>
        <g id="_49" data-name="49">
          <rect class="cls-18" x="394.55" y="310.52" width="90.42" height="39.88"/>
          <path class="cls-16" d="M432.97,318.78h12.97c6.85,0,12.4,5.19,12.4,11.59s-5.55,11.59-12.4,11.59h-12.97c-6.85,0-12.4-5.19-12.4-11.59s5.55-11.59,12.4-11.59"/>
          <path d="M435.58,333.08h-4.87l-.35-1.45,5.47-5.93h1.85v5.71h1.34v1.66h-1.34v2.01h-2.09v-2.01ZM435.58,331.42v-2.91l-2.65,2.91h2.65Z"/>
          <path d="M445.96,331.27c-.51.4-1.17.64-2.03.64-2.16,0-3.56-1.12-3.56-3.01v-.02c0-1.88,1.55-3.27,3.8-3.27,1.34,0,2.12.31,2.88,1.02.72.66,1.19,1.68,1.19,3.52v.03c0,3.03-1.53,5.09-4.36,5.09-1.45,0-2.44-.46-3.28-1.11l1.15-1.56c.73.55,1.34.8,2.18.8,1.51,0,1.94-1.31,2.03-2.12M446,328.82v-.03c0-.83-.66-1.43-1.75-1.43s-1.7.59-1.7,1.41v.03c0,.83.66,1.4,1.74,1.4s1.71-.58,1.71-1.39"/>
        </g>
        <g id="_52" data-name="52">
          <rect class="cls-18" x="196.37" y="310.43" width="70.2" height="39.88"/>
          <path class="cls-16" d="M225.66,318.78h12.97c6.85,0,12.4,5.19,12.4,11.59s-5.55,11.59-12.4,11.59h-12.97c-6.85,0-12.4-5.19-12.4-11.59s5.55-11.59,12.4-11.59"/>
          <path d="M223.92,333.86l1.32-1.48c.75.64,1.49,1.01,2.38,1.01,1.02,0,1.67-.47,1.67-1.29v-.03c0-.8-.73-1.27-1.77-1.27-.63,0-1.2.16-1.67.34l-1.27-.79.29-4.59h6.12v1.8h-4.24l-.12,1.61c.4-.09.76-.16,1.31-.16,1.94,0,3.49.88,3.49,2.98v.03c0,1.97-1.5,3.23-3.79,3.23-1.6,0-2.77-.53-3.73-1.4"/>
          <path d="M232.82,333.47l3.32-2.54c1.24-.96,1.72-1.47,1.72-2.24s-.56-1.21-1.34-1.21-1.29.4-2.03,1.25l-1.54-1.16c.99-1.25,1.94-1.93,3.72-1.93,2.06,0,3.43,1.13,3.43,2.88v.03c0,1.56-.86,2.33-2.62,3.61l-1.63,1.17h4.35v1.77h-7.38v-1.62Z"/>
        </g>
        <g id="_55" data-name="55">
          <rect class="cls-21" x="389.42" y="393.13" width="88.62" height="39.88"/>
          <path class="cls-16" d="M427.98,401.77h12.97c6.85,0,12.4,5.19,12.4,11.59s-5.55,11.59-12.4,11.59h-12.97c-6.85,0-12.4-5.19-12.4-11.59s5.55-11.59,12.4-11.59"/>
          <path d="M426.1,416.84l1.32-1.48c.75.64,1.49,1.01,2.38,1.01,1.02,0,1.67-.47,1.67-1.29v-.03c0-.8-.73-1.27-1.77-1.27-.63,0-1.2.16-1.67.34l-1.27-.78.29-4.59h6.12v1.8h-4.25l-.12,1.61c.4-.09.76-.16,1.31-.16,1.94,0,3.49.88,3.49,2.98v.03c0,1.97-1.5,3.23-3.79,3.23-1.6,0-2.77-.53-3.73-1.4"/>
          <path d="M435.07,416.84l1.33-1.48c.75.64,1.49,1.01,2.38,1.01,1.02,0,1.67-.47,1.67-1.29v-.03c0-.8-.73-1.27-1.77-1.27-.63,0-1.2.16-1.67.34l-1.27-.78.29-4.59h6.12v1.8h-4.24l-.12,1.61c.4-.09.76-.16,1.31-.16,1.94,0,3.49.88,3.49,2.98v.03c0,1.97-1.5,3.23-3.79,3.23-1.6,0-2.76-.53-3.73-1.4"/>
        </g>
        <g id="_60" data-name="60">
          <rect class="cls-9" x="835.08" y="393.27" width="118.12" height="39.9"/>
          <path class="cls-16" d="M885.54,401.72h12.97c6.85,0,12.4,5.19,12.4,11.59s-5.55,11.59-12.4,11.59h-12.97c-6.85,0-12.4-5.19-12.4-11.59s5.55-11.59,12.4-11.59"/>
          <path d="M884.07,417.2c-.73-.68-1.18-1.68-1.18-3.53v-.03c0-2.88,1.4-5.09,4.37-5.09,1.35,0,2.24.37,3.12,1.03l-1.16,1.59c-.66-.47-1.19-.75-2.04-.75-1.5,0-1.94,1.35-2.01,2.16.53-.33,1.15-.6,2.06-.6,1.98,0,3.51,1.03,3.51,2.97v.03c0,1.91-1.64,3.23-3.8,3.23-1.3,0-2.18-.35-2.88-1M888.57,415.06v-.03c0-.79-.66-1.36-1.74-1.36s-1.71.56-1.71,1.35v.03c0,.79.65,1.39,1.74,1.39s1.71-.57,1.71-1.37"/>
          <path d="M892.31,413.4v-.03c0-2.7,1.8-4.82,4.44-4.82s4.42,2.09,4.42,4.79v.03c0,2.71-1.78,4.82-4.45,4.82s-4.41-2.09-4.41-4.8M898.92,413.4v-.03c0-1.69-.88-2.97-2.2-2.97s-2.16,1.24-2.16,2.94v.03c0,1.71.87,2.97,2.19,2.97s2.17-1.25,2.17-2.94"/>
        </g>
        <g id="_61" data-name="61">
          <rect class="cls-12" x="958.2" y="393.32" width="88.03" height="39.9"/>
          <path class="cls-16" d="M995.73,401.72h12.97c6.85,0,12.4,5.19,12.4,11.59s-5.55,11.59-12.4,11.59h-12.97c-6.85,0-12.4-5.19-12.4-11.59s5.55-11.59,12.4-11.59"/>
          <path d="M996.52,417.2c-.73-.68-1.18-1.68-1.18-3.53v-.03c0-2.88,1.4-5.09,4.38-5.09,1.35,0,2.23.37,3.12,1.03l-1.16,1.59c-.66-.47-1.18-.75-2.04-.75-1.5,0-1.94,1.35-2.01,2.16.52-.33,1.15-.6,2.06-.6,1.98,0,3.51,1.03,3.51,2.97v.03c0,1.91-1.64,3.23-3.81,3.23-1.3,0-2.18-.35-2.88-1M1001.03,415.06v-.03c0-.79-.65-1.36-1.74-1.36s-1.71.56-1.71,1.35v.03c0,.79.65,1.39,1.74,1.39s1.71-.57,1.71-1.37"/>
          <polygon points="1006.39 410.72 1004.65 411.12 1004.19 409.44 1007.06 408.64 1008.56 408.64 1008.56 418.03 1006.39 418.03 1006.39 410.72"/>
        </g>
        <g id="_62" data-name="62">
          <rect class="cls-9" x="1051.23" y="393.36" width="65.32" height="39.9"/>
          <path class="cls-16" d="M1077.41,401.72h12.97c6.85,0,12.4,5.19,12.4,11.59s-5.55,11.59-12.4,11.59h-12.97c-6.85,0-12.4-5.19-12.4-11.59s5.55-11.59,12.4-11.59"/>
          <path d="M1076.7,417.2c-.73-.68-1.18-1.68-1.18-3.53v-.03c0-2.88,1.4-5.09,4.37-5.09,1.35,0,2.24.37,3.12,1.03l-1.16,1.59c-.66-.47-1.19-.75-2.04-.75-1.5,0-1.94,1.35-2.01,2.16.53-.33,1.15-.6,2.06-.6,1.98,0,3.51,1.03,3.51,2.97v.03c0,1.91-1.64,3.23-3.8,3.23-1.3,0-2.18-.35-2.88-1M1081.2,415.06v-.03c0-.79-.66-1.36-1.74-1.36s-1.71.56-1.71,1.35v.03c0,.79.65,1.39,1.74,1.39s1.71-.57,1.71-1.37"/>
          <path d="M1084.87,416.41l3.32-2.54c1.24-.96,1.72-1.47,1.72-2.24s-.56-1.21-1.34-1.21-1.29.4-2.04,1.25l-1.54-1.16c.99-1.25,1.94-1.93,3.72-1.93,2.06,0,3.43,1.13,3.43,2.88v.03c0,1.56-.86,2.33-2.62,3.61l-1.63,1.17h4.35v1.77h-7.38v-1.62Z"/>
        </g>
        <g id="_63" data-name="63">
          <rect class="cls-4" x="1121.56" y="393.4" width="126.31" height="39.9"/>
          <path class="cls-16" d="M1176.5,401.72h12.97c6.85,0,12.4,5.19,12.4,11.59s-5.55,11.59-12.4,11.59h-12.97c-6.85,0-12.4-5.19-12.4-11.59s5.55-11.59,12.4-11.59"/>
          <path d="M1175.87,417.2c-.73-.68-1.18-1.68-1.18-3.53v-.03c0-2.88,1.4-5.09,4.38-5.09,1.35,0,2.23.37,3.12,1.03l-1.16,1.59c-.66-.47-1.18-.75-2.04-.75-1.5,0-1.94,1.35-2.01,2.16.52-.33,1.15-.6,2.06-.6,1.98,0,3.5,1.03,3.5,2.97v.03c0,1.91-1.64,3.23-3.8,3.23-1.3,0-2.18-.35-2.88-1M1180.38,415.06v-.03c0-.79-.65-1.36-1.74-1.36s-1.71.56-1.71,1.35v.03c0,.79.66,1.39,1.74,1.39s1.71-.57,1.71-1.37"/>
          <path d="M1183.75,416.58l1.51-1.35c.69.72,1.4,1.12,2.41,1.12.83,0,1.41-.44,1.41-1.13v-.03c0-.76-.73-1.19-1.95-1.19h-.92l-.34-1.3,2.38-2.24h-3.92v-1.76h6.74v1.55l-2.52,2.25c1.35.21,2.68.88,2.68,2.61v.03c0,1.76-1.37,3.05-3.59,3.05-1.8,0-3.03-.67-3.89-1.61"/>
        </g>
        <g id="_66" data-name="66">
          <rect class="cls-5" x="1011.64" y="475.98" width="56.9" height="39.9"/>
          <path class="cls-16" d="M1033.5,485.06h12.97c6.85,0,12.4,5.19,12.4,11.59s-5.55,11.59-12.4,11.59h-12.97c-6.85,0-12.4-5.19-12.4-11.59s5.55-11.59,12.4-11.59"/>
          <path d="M1032.51,500.54c-.73-.68-1.18-1.68-1.18-3.53v-.03c0-2.88,1.4-5.09,4.37-5.09,1.35,0,2.24.37,3.12,1.02l-1.16,1.59c-.66-.46-1.19-.74-2.04-.74-1.5,0-1.94,1.35-2.01,2.16.53-.33,1.15-.6,2.06-.6,1.98,0,3.51,1.03,3.51,2.97v.03c0,1.91-1.64,3.23-3.8,3.23-1.3,0-2.18-.35-2.88-1M1037.01,498.41v-.03c0-.79-.66-1.36-1.74-1.36s-1.71.56-1.71,1.35v.03c0,.79.65,1.39,1.74,1.39s1.71-.58,1.71-1.37"/>
          <path d="M1041.93,500.54c-.73-.68-1.18-1.68-1.18-3.53v-.03c0-2.88,1.4-5.09,4.38-5.09,1.35,0,2.23.37,3.12,1.02l-1.16,1.59c-.66-.46-1.18-.74-2.04-.74-1.5,0-1.94,1.35-2.01,2.16.52-.33,1.15-.6,2.06-.6,1.98,0,3.5,1.03,3.5,2.97v.03c0,1.91-1.64,3.23-3.8,3.23-1.3,0-2.18-.35-2.88-1M1046.43,498.41v-.03c0-.79-.65-1.36-1.74-1.36s-1.71.56-1.71,1.35v.03c0,.79.66,1.39,1.74,1.39s1.71-.58,1.71-1.37"/>
        </g>
        <g id="_68" data-name="68">
          <rect class="cls-12" x="894.07" y="475.93" width="59.47" height="39.9"/>
          <path class="cls-16" d="M917.32,485.06h12.97c6.85,0,12.4,5.19,12.4,11.59s-5.55,11.59-12.4,11.59h-12.97c-6.85,0-12.4-5.19-12.4-11.59s5.55-11.59,12.4-11.59"/>
          <path d="M916.55,500.54c-.73-.68-1.18-1.68-1.18-3.53v-.03c0-2.88,1.39-5.09,4.37-5.09,1.35,0,2.24.37,3.12,1.02l-1.16,1.59c-.66-.46-1.18-.74-2.04-.74-1.5,0-1.94,1.35-2.01,2.16.52-.33,1.15-.6,2.06-.6,1.98,0,3.51,1.03,3.51,2.97v.03c0,1.91-1.64,3.23-3.81,3.23-1.3,0-2.18-.35-2.88-1M921.06,498.41v-.03c0-.79-.65-1.36-1.74-1.36s-1.71.56-1.71,1.35v.03c0,.79.66,1.39,1.74,1.39s1.71-.58,1.71-1.37"/>
          <path d="M924.67,498.82v-.03c0-1.13.56-1.8,1.61-2.25-.77-.44-1.27-1.04-1.27-2.04v-.03c0-1.42,1.4-2.56,3.5-2.56s3.5,1.12,3.5,2.56v.03c0,1-.49,1.6-1.27,2.04,1.01.49,1.61,1.09,1.61,2.2v.03c0,1.73-1.64,2.74-3.85,2.74s-3.85-1.07-3.85-2.69M930.24,498.66v-.03c0-.72-.73-1.15-1.72-1.15s-1.72.42-1.72,1.15v.03c0,.64.64,1.16,1.72,1.16s1.72-.5,1.72-1.16M929.94,494.73v-.03c0-.57-.53-1.09-1.42-1.09s-1.42.51-1.42,1.08v.03c0,.65.56,1.15,1.42,1.15s1.42-.48,1.42-1.13"/>
        </g>
        <g id="WR3">
          <rect class="cls-8" x="868.73" y="582.98" width="61.71" height="89.47"/>
          <path class="cls-16" d="M887.81,616.06h24.35c6.85,0,12.4,5.19,12.4,11.59s-5.55,11.59-12.4,11.59h-24.35c-6.85,0-12.4-5.19-12.4-11.59s5.55-11.59,12.4-11.59"/>
          <polygon points="882.87 623.05 885.22 623.05 887.28 629.36 889.52 623.02 891.4 623.02 893.64 629.36 895.7 623.05 897.99 623.05 894.59 632.44 892.68 632.44 890.43 626.34 888.18 632.44 886.27 632.44 882.87 623.05"/>
          <path d="M899.6,623.05h4.56c1.27,0,2.25.33,2.91.95.56.52.85,1.25.85,2.13v.03c0,1.5-.87,2.45-2.14,2.89l2.43,3.33h-2.57l-2.14-2.98h-1.72v2.98h-2.2v-9.32ZM904.02,627.57c1.07,0,1.68-.53,1.68-1.32v-.03c0-.88-.66-1.33-1.73-1.33h-2.18v2.68h2.22Z"/>
          <path d="M909.24,630.92l1.51-1.35c.69.72,1.4,1.12,2.41,1.12.83,0,1.41-.44,1.41-1.13v-.03c0-.76-.73-1.19-1.95-1.19h-.92l-.34-1.31,2.38-2.24h-3.92v-1.76h6.74v1.55l-2.52,2.25c1.35.21,2.68.88,2.68,2.61v.03c0,1.76-1.37,3.05-3.59,3.05-1.8,0-3.03-.67-3.89-1.61"/>
        </g>
        <g id="WR4">
          <rect class="cls-8" x="794.97" y="582.95" width="69.15" height="89.48"/>
          <path class="cls-16" d="M817.37,616.06h24.35c6.85,0,12.4,5.19,12.4,11.59s-5.55,11.59-12.4,11.59h-24.35c-6.85,0-12.4-5.19-12.4-11.59s5.55-11.59,12.4-11.59"/>
          <polygon points="811.94 623.05 814.29 623.05 816.36 629.36 818.59 623.02 820.47 623.02 822.71 629.36 824.78 623.05 827.07 623.05 823.66 632.44 821.76 632.44 819.51 626.34 817.25 632.44 815.34 632.44 811.94 623.05"/>
          <path d="M828.68,623.05h4.56c1.27,0,2.25.33,2.9.95.56.52.85,1.25.85,2.13v.03c0,1.5-.87,2.45-2.14,2.89l2.43,3.33h-2.56l-2.14-2.98h-1.72v2.98h-2.2v-9.32ZM833.09,627.57c1.07,0,1.68-.53,1.68-1.32v-.03c0-.88-.66-1.33-1.73-1.33h-2.18v2.68h2.22Z"/>
          <path d="M843.44,630.36h-4.87l-.36-1.45,5.47-5.93h1.85v5.71h1.34v1.66h-1.34v2.01h-2.1v-2.01ZM843.44,628.69v-2.9l-2.65,2.9h2.65Z"/>
        </g>
        <g id="WR5">
          <path class="cls-21" d="M790.34,672.4l-95.71-.04.03-54.2c.01-19.48,16.91-35.27,37.75-35.26l57.97.03-.05,89.47Z"/>
          <path class="cls-16" d="M731.4,616.06h24.35c6.85,0,12.4,5.19,12.4,11.59s-5.55,11.59-12.4,11.59h-24.35c-6.85,0-12.4-5.19-12.4-11.59s5.55-11.59,12.4-11.59"/>
          <polygon points="726.39 623.05 728.74 623.05 730.81 629.36 733.04 623.02 734.92 623.02 737.16 629.36 739.23 623.05 741.52 623.05 738.11 632.44 736.21 632.44 733.95 626.34 731.7 632.44 729.79 632.44 726.39 623.05"/>
          <path d="M743.13,623.05h4.56c1.27,0,2.25.33,2.91.95.56.52.85,1.25.85,2.13v.03c0,1.5-.87,2.45-2.14,2.89l2.43,3.33h-2.57l-2.14-2.98h-1.72v2.98h-2.2v-9.32ZM747.55,627.57c1.07,0,1.68-.53,1.68-1.32v-.03c0-.88-.66-1.33-1.73-1.33h-2.18v2.68h2.22Z"/>
          <path d="M752.84,631.13l1.32-1.48c.75.64,1.49,1.01,2.38,1.01,1.02,0,1.67-.47,1.67-1.29v-.03c0-.8-.73-1.27-1.77-1.27-.63,0-1.2.16-1.67.35l-1.27-.78.29-4.59h6.12v1.8h-4.24l-.12,1.61c.4-.09.76-.16,1.31-.16,1.94,0,3.49.88,3.49,2.98v.03c0,1.97-1.5,3.22-3.79,3.22-1.6,0-2.77-.53-3.73-1.4"/>
        </g>
        <g id="WR6">
          <rect class="cls-4" x="522.29" y="582.84" width="96.14" height="89.48"/>
          <path class="cls-16" d="M556.73,616.06h24.35c6.85,0,12.4,5.19,12.4,11.59s-5.55,11.59-12.4,11.59h-24.35c-6.85,0-12.4-5.19-12.4-11.59s5.55-11.59,12.4-11.59"/>
          <polygon points="551.49 623.05 553.84 623.05 555.91 629.36 558.14 623.02 560.03 623.02 562.26 629.36 564.33 623.05 566.62 623.05 563.22 632.44 561.31 632.44 559.06 626.34 556.8 632.44 554.9 632.44 551.49 623.05"/>
          <path d="M568.23,623.05h4.56c1.27,0,2.25.33,2.91.95.56.52.85,1.25.85,2.13v.03c0,1.5-.87,2.45-2.14,2.89l2.43,3.33h-2.57l-2.14-2.98h-1.72v2.98h-2.2v-9.32ZM572.65,627.57c1.07,0,1.68-.53,1.68-1.32v-.03c0-.88-.66-1.33-1.73-1.33h-2.18v2.68h2.22Z"/>
          <path d="M579.28,631.53c-.73-.68-1.18-1.68-1.18-3.53v-.03c0-2.88,1.4-5.09,4.37-5.09,1.35,0,2.24.37,3.12,1.03l-1.16,1.59c-.66-.47-1.19-.75-2.04-.75-1.5,0-1.94,1.35-2.01,2.16.53-.33,1.15-.6,2.06-.6,1.98,0,3.51,1.03,3.51,2.97v.03c0,1.9-1.64,3.23-3.8,3.23-1.3,0-2.18-.35-2.88-1M583.78,629.4v-.03c0-.79-.66-1.36-1.74-1.36s-1.71.56-1.71,1.35v.03c0,.79.65,1.39,1.74,1.39s1.71-.57,1.71-1.37"/>
        </g>
        <g id="WR7">
          <rect class="cls-9" x="413.6" y="582.84" width="103.53" height="89.44"/>
          <path class="cls-16" d="M453.19,616.06h24.35c6.85,0,12.4,5.19,12.4,11.59s-5.55,11.59-12.4,11.59h-24.35c-6.85,0-12.4-5.19-12.4-11.59s5.55-11.59,12.4-11.59"/>
          <polygon points="448.26 623.05 450.61 623.05 452.68 629.36 454.91 623.02 456.79 623.02 459.03 629.36 461.1 623.05 463.39 623.05 459.98 632.44 458.07 632.44 455.82 626.34 453.57 632.44 451.66 632.44 448.26 623.05"/>
          <path d="M465,623.05h4.56c1.27,0,2.25.33,2.91.95.56.52.85,1.25.85,2.13v.03c0,1.5-.87,2.45-2.14,2.89l2.43,3.33h-2.57l-2.14-2.98h-1.72v2.98h-2.2v-9.32ZM469.41,627.57c1.07,0,1.68-.53,1.68-1.32v-.03c0-.88-.66-1.33-1.73-1.33h-2.18v2.68h2.22Z"/>
          <polygon points="479.75 624.82 475.06 624.82 475.06 623.05 482.24 623.05 482.24 624.59 477.77 632.37 475.29 632.37 479.75 624.82"/>
        </g>
        <g id="_69" data-name="69">
          <rect class="cls-12" x="800.59" y="475.9" width="88.47" height="39.9"/>
          <path class="cls-16" d="M838.34,485.06h12.97c6.85,0,12.4,5.19,12.4,11.59s-5.55,11.59-12.4,11.59h-12.97c-6.85,0-12.4-5.19-12.4-11.59s5.55-11.59,12.4-11.59"/>
          <path d="M837.43,500.54c-.73-.68-1.18-1.68-1.18-3.53v-.03c0-2.88,1.4-5.09,4.37-5.09,1.35,0,2.24.37,3.12,1.02l-1.16,1.59c-.66-.46-1.19-.74-2.04-.74-1.5,0-1.94,1.35-2.01,2.16.53-.33,1.15-.6,2.06-.6,1.98,0,3.51,1.03,3.51,2.97v.03c0,1.91-1.64,3.23-3.8,3.23-1.3,0-2.18-.35-2.88-1M841.93,498.41v-.03c0-.79-.66-1.36-1.74-1.36s-1.71.56-1.71,1.35v.03c0,.79.65,1.39,1.74,1.39s1.71-.58,1.71-1.37"/>
          <path d="M851.14,497.56c-.51.4-1.17.64-2.03.64-2.16,0-3.56-1.12-3.56-3.01v-.03c0-1.88,1.55-3.27,3.8-3.27,1.34,0,2.12.31,2.88,1.01.72.67,1.19,1.68,1.19,3.52v.03c0,3.02-1.53,5.09-4.36,5.09-1.45,0-2.44-.45-3.28-1.11l1.15-1.56c.73.54,1.34.8,2.18.8,1.51,0,1.94-1.32,2.03-2.12M851.18,495.1v-.03c0-.83-.66-1.43-1.75-1.43s-1.7.59-1.7,1.41v.03c0,.83.66,1.4,1.74,1.4s1.71-.59,1.71-1.39"/>
        </g>
        <g id="_70" data-name="70">
          <rect class="cls-14" x="707.12" y="475.86" width="88.47" height="39.9"/>
          <path class="cls-16" d="M745.7,485.06h12.97c6.85,0,12.4,5.19,12.4,11.59s-5.55,11.59-12.4,11.59h-12.97c-6.85,0-12.4-5.19-12.4-11.59s5.55-11.59,12.4-11.59"/>
          <polygon points="748.38 493.83 743.69 493.83 743.69 492.05 750.87 492.05 750.87 493.6 746.4 501.38 743.92 501.38 748.38 493.83"/>
          <path d="M752.02,496.74v-.03c0-2.7,1.8-4.82,4.44-4.82s4.42,2.09,4.42,4.79v.03c0,2.7-1.78,4.82-4.45,4.82s-4.41-2.09-4.41-4.8M758.63,496.74v-.03c0-1.69-.88-2.97-2.2-2.97s-2.16,1.24-2.16,2.94v.03c0,1.71.87,2.97,2.19,2.97s2.17-1.25,2.17-2.94"/>
        </g>
        <g id="_71" data-name="71">
          <rect class="cls-8" x="559.6" y="475.8" width="69.85" height="39.88"/>
          <path class="cls-16" d="M588.04,484.38h12.97c6.85,0,12.4,5.19,12.4,11.59s-5.55,11.59-12.4,11.59h-12.97c-6.85,0-12.4-5.19-12.4-11.59s5.55-11.59,12.4-11.59"/>
          <polygon points="592.7 493.14 588.01 493.14 588.01 491.37 595.19 491.37 595.19 492.91 590.72 500.69 588.24 500.69 592.7 493.14"/>
          <polygon points="598.53 493.38 596.8 493.78 596.34 492.1 599.2 491.3 600.7 491.3 600.7 500.69 598.53 500.69 598.53 493.38"/>
        </g>
        <g id="_72" data-name="72">
          <rect class="cls-18" x="489.76" y="475.77" width="64.97" height="39.88"/>
          <path class="cls-16" d="M515.76,484.38h12.97c6.85,0,12.4,5.19,12.4,11.59s-5.55,11.59-12.4,11.59h-12.97c-6.85,0-12.4-5.19-12.4-11.59s5.55-11.59,12.4-11.59"/>
          <polygon points="519.17 493.14 514.48 493.14 514.48 491.37 521.66 491.37 521.66 492.91 517.19 500.69 514.71 500.69 519.17 493.14"/>
          <path d="M522.8,499.07l3.32-2.54c1.24-.96,1.72-1.47,1.72-2.24s-.56-1.21-1.34-1.21-1.3.4-2.04,1.25l-1.54-1.16c.98-1.25,1.94-1.93,3.72-1.93,2.06,0,3.43,1.13,3.43,2.88v.03c0,1.56-.85,2.33-2.62,3.61l-1.63,1.17h4.35v1.77h-7.38v-1.62Z"/>
        </g>
        <g id="_75" data-name="75">
          <rect class="cls-12" x="297.78" y="475.69" width="79.61" height="39.88"/>
          <path class="cls-16" d="M330.83,484.38h12.97c6.85,0,12.4,5.19,12.4,11.59s-5.55,11.59-12.4,11.59h-12.97c-6.85,0-12.4-5.19-12.4-11.59s5.55-11.59,12.4-11.59"/>
          <polygon points="334.25 493.14 329.57 493.14 329.57 491.37 336.75 491.37 336.75 492.91 332.27 500.69 329.79 500.69 334.25 493.14"/>
          <path d="M337.66,499.45l1.33-1.48c.75.64,1.49,1.02,2.38,1.02,1.02,0,1.67-.47,1.67-1.29v-.03c0-.8-.73-1.27-1.77-1.27-.63,0-1.2.16-1.67.35l-1.27-.79.29-4.59h6.12v1.8h-4.24l-.12,1.61c.4-.09.76-.16,1.31-.16,1.94,0,3.49.88,3.49,2.98v.03c0,1.97-1.5,3.22-3.79,3.22-1.6,0-2.76-.53-3.73-1.4"/>
        </g>
        <g id="_76" data-name="76">
          <rect class="cls-4" x="196.28" y="475.65" width="96.07" height="39.88"/>
          <path class="cls-16" d="M238.74,484.38h12.97c6.85,0,12.4,5.19,12.4,11.59s-5.55,11.59-12.4,11.59h-12.97c-6.85,0-12.4-5.19-12.4-11.59s5.55-11.59,12.4-11.59"/>
          <polygon points="241.91 493.14 237.22 493.14 237.22 491.37 244.4 491.37 244.4 492.91 239.93 500.69 237.45 500.69 241.91 493.14"/>
          <path d="M246.73,499.86c-.73-.68-1.18-1.68-1.18-3.53v-.03c0-2.88,1.4-5.09,4.37-5.09,1.35,0,2.24.37,3.12,1.02l-1.16,1.59c-.66-.47-1.19-.74-2.04-.74-1.5,0-1.94,1.35-2.01,2.16.53-.33,1.15-.6,2.06-.6,1.98,0,3.51,1.03,3.51,2.97v.03c0,1.91-1.64,3.23-3.8,3.23-1.3,0-2.18-.35-2.88-1M251.23,497.72v-.03c0-.79-.66-1.36-1.74-1.36s-1.71.56-1.71,1.35v.03c0,.79.65,1.39,1.74,1.39s1.71-.58,1.71-1.37"/>
        </g>
        <g id="PIR">
          <polygon class="cls-19" points="118.61 519.59 84.66 519.58 84.51 480.03 118.45 480.05 118.61 519.59"/>
          <path class="cls-16" d="M89.16,505.88v-12.12c0-6.4,5.55-11.59,12.4-11.59s12.4,5.19,12.4,11.59v12.12c0,6.4-5.55,11.59-12.4,11.59s-12.4-5.19-12.4-11.59"/>
          <path d="M96.64,510.19v-3.81c0-2.22,1.41-3.57,3.45-3.57h.03c2.31,0,3.51,1.68,3.51,3.77v1.56h2.99v2.05h-9.97ZM101.67,506.51c0-1.03-.65-1.63-1.51-1.63h-.03c-.99,0-1.51.64-1.51,1.67v1.58h3.05v-1.62Z"/>
          <rect x="96.64" y="499.15" width="9.97" height="2.05"/>
          <path d="M96.64,496.82v-4.26c0-1.18.35-2.1,1.01-2.72.56-.52,1.34-.8,2.28-.8h.03c1.61,0,2.62.81,3.09,2l3.56-2.28v2.4l-3.19,2v1.61h3.19v2.05h-9.97ZM101.48,492.7c0-1-.57-1.57-1.41-1.57h-.03c-.94,0-1.42.62-1.42,1.61v2.04h2.86v-2.08Z"/>
        </g>
        <g id="_33" data-name="33">
          <rect class="cls-14" x="707.25" y="227.93" width="89.87" height="39.9"/>
          <path class="cls-16" d="M744.22,236.36h12.97c6.85,0,12.4,5.19,12.4,11.59s-5.55,11.59-12.4,11.59h-12.97c-6.85,0-12.4-5.19-12.4-11.59s5.55-11.59,12.4-11.59"/>
          <path d="M742.41,251.22l1.51-1.35c.69.72,1.4,1.12,2.41,1.12.83,0,1.41-.44,1.41-1.13v-.03c0-.76-.73-1.19-1.95-1.19h-.92l-.34-1.3,2.38-2.24h-3.92v-1.76h6.74v1.55l-2.52,2.25c1.35.21,2.68.88,2.68,2.61v.03c0,1.76-1.37,3.05-3.59,3.05-1.8,0-3.03-.67-3.89-1.61"/>
          <path d="M751.24,251.22l1.51-1.35c.69.72,1.4,1.12,2.41,1.12.83,0,1.41-.44,1.41-1.13v-.03c0-.76-.73-1.19-1.95-1.19h-.92l-.34-1.3,2.38-2.24h-3.92v-1.76h6.74v1.55l-2.52,2.25c1.35.21,2.68.88,2.68,2.61v.03c0,1.76-1.37,3.05-3.59,3.05-1.8,0-3.03-.67-3.89-1.61"/>
        </g>
        <g id="_32" data-name="32">
          <rect class="cls-14" x="515.31" y="227.97" width="114.27" height="39.88"/>
          <path class="cls-16" d="M565.96,236.27h12.97c6.85,0,12.4,5.19,12.4,11.59s-5.55,11.59-12.4,11.59h-12.97c-6.85,0-12.4-5.19-12.4-11.59s5.55-11.59,12.4-11.59"/>
          <path d="M564.13,251.13l1.51-1.34c.69.72,1.4,1.12,2.41,1.12.83,0,1.41-.44,1.41-1.13v-.03c0-.76-.73-1.19-1.95-1.19h-.92l-.34-1.3,2.38-2.24h-3.92v-1.76h6.74v1.55l-2.52,2.25c1.35.21,2.68.88,2.68,2.61v.03c0,1.76-1.37,3.05-3.59,3.05-1.8,0-3.03-.67-3.89-1.61"/>
          <path d="M573.12,250.96l3.32-2.54c1.24-.96,1.72-1.47,1.72-2.24s-.56-1.21-1.34-1.21-1.3.4-2.04,1.25l-1.54-1.16c.98-1.25,1.94-1.93,3.72-1.93,2.06,0,3.43,1.13,3.43,2.88v.03c0,1.56-.85,2.33-2.62,3.61l-1.63,1.17h4.35v1.77h-7.38v-1.62Z"/>
        </g>
        <g id="_38" data-name="38">
          <rect class="cls-12" x="1111.47" y="228.12" width="136.49" height="39.9"/>
          <path class="cls-16" d="M1171.03,236.36h12.97c6.85,0,12.4,5.19,12.4,11.59s-5.55,11.59-12.4,11.59h-12.97c-6.85,0-12.4-5.19-12.4-11.59s5.55-11.59,12.4-11.59"/>
          <path d="M1169.15,251.22l1.51-1.35c.69.72,1.4,1.12,2.41,1.12.83,0,1.41-.44,1.41-1.13v-.03c0-.76-.73-1.19-1.95-1.19h-.92l-.34-1.3,2.38-2.24h-3.92v-1.76h6.74v1.55l-2.52,2.25c1.35.21,2.68.88,2.68,2.61v.03c0,1.76-1.37,3.05-3.59,3.05-1.8,0-3.03-.67-3.89-1.61"/>
          <path d="M1178.09,250.12v-.03c0-1.13.56-1.8,1.61-2.25-.77-.44-1.27-1.04-1.27-2.04v-.03c0-1.42,1.4-2.56,3.5-2.56s3.5,1.12,3.5,2.56v.03c0,1-.49,1.6-1.27,2.04,1.01.49,1.61,1.09,1.61,2.2v.03c0,1.73-1.64,2.74-3.85,2.74s-3.85-1.07-3.85-2.69M1183.66,249.96v-.03c0-.72-.72-1.14-1.72-1.14s-1.72.42-1.72,1.14v.03c0,.64.64,1.16,1.72,1.16s1.72-.5,1.72-1.16M1183.36,246.03v-.03c0-.58-.53-1.09-1.43-1.09s-1.42.51-1.42,1.08v.03c0,.65.56,1.15,1.42,1.15s1.43-.48,1.43-1.13"/>
        </g>
        <g id="_14" data-name="14">
          <rect class="cls-14" x="1085.57" y="145.45" width="79.71" height="39.9"/>
          <path class="cls-16" d="M1118.95,154.12h12.97c6.85,0,12.4,5.19,12.4,11.59s-5.55,11.59-12.4,11.59h-12.97c-6.85,0-12.4-5.19-12.4-11.59s5.55-11.59,12.4-11.59"/>
          <polygon points="1120.06 163.12 1118.32 163.52 1117.86 161.85 1120.73 161.05 1122.22 161.05 1122.22 170.44 1120.06 170.44 1120.06 163.12"/>
          <path d="M1129.2,168.42h-4.87l-.35-1.45,5.47-5.93h1.85v5.71h1.34v1.66h-1.34v2.01h-2.09v-2.01ZM1129.2,166.76v-2.9l-2.65,2.9h2.65Z"/>
        </g>
        <g id="_13" data-name="13">
          <rect class="cls-18" x="1170.29" y="145.49" width="77.71" height="39.9"/>
          <path class="cls-16" d="M1202.66,153.85h12.97c6.85,0,12.4,5.19,12.4,11.59s-5.55,11.59-12.4,11.59h-12.97c-6.85,0-12.4-5.19-12.4-11.59s5.55-11.59,12.4-11.59"/>
          <polygon points="1204.25 162.85 1202.52 163.25 1202.06 161.57 1204.92 160.77 1206.42 160.77 1206.42 170.17 1204.25 170.17 1204.25 162.85"/>
          <path d="M1208.27,168.71l1.51-1.34c.69.72,1.4,1.12,2.41,1.12.83,0,1.41-.44,1.41-1.13v-.03c0-.76-.73-1.19-1.95-1.19h-.92l-.34-1.31,2.38-2.24h-3.92v-1.76h6.74v1.55l-2.52,2.25c1.35.21,2.68.88,2.68,2.61v.03c0,1.76-1.37,3.05-3.59,3.05-1.8,0-3.03-.67-3.89-1.61"/>
        </g>
        <g id="_1" data-name="1">
          <rect class="cls-4" x="196.62" y="63.22" width="70.45" height="39.88"/>
          <path class="cls-16" d="M225.66,71.57h12.97c6.85,0,12.4,5.19,12.4,11.59s-5.55,11.59-12.4,11.59h-12.97c-6.85,0-12.4-5.19-12.4-11.59s5.55-11.59,12.4-11.59"/>
          <polygon points="231.68 80.57 229.94 80.97 229.48 79.29 232.35 78.49 233.85 78.49 233.85 87.88 231.68 87.88 231.68 80.57"/>
        </g>
        <g id="_50-51" data-name="50-51">
          <rect class="cls-5" x="271.46" y="310.48" width="118.2" height="39.88"/>
          <g>
            <path class="cls-16" d="M309.85,318.83h41.44c6.85,0,12.4,5.19,12.4,11.59s-5.55,11.59-12.4,11.59h-41.44c-6.85,0-12.4-5.19-12.4-11.59s5.55-11.59,12.4-11.59"/>
            <path d="M320.3,330.51v-.03c0-2.7,1.8-4.82,4.44-4.82s4.42,2.09,4.42,4.79v.03c0,2.7-1.78,4.82-4.45,4.82s-4.41-2.09-4.41-4.8M326.91,330.51v-.03c0-1.69-.88-2.97-2.2-2.97s-2.16,1.24-2.16,2.94v.03c0,1.71.87,2.97,2.19,2.97s2.17-1.25,2.17-2.94"/>
            <rect x="330.64" y="330.05" width="4.39" height="1.94"/>
            <polygon points="346.97 327.84 345.23 328.24 344.77 326.56 347.63 325.76 349.13 325.76 349.13 335.15 346.97 335.15 346.97 327.84"/>
            <path d="M311.19,333.91l1.32-1.48c.75.64,1.49,1.01,2.38,1.01,1.02,0,1.67-.47,1.67-1.29v-.03c0-.8-.73-1.27-1.77-1.27-.63,0-1.2.16-1.67.34l-1.27-.79.29-4.59h6.12v1.8h-4.25l-.12,1.61c.4-.09.76-.16,1.31-.16,1.94,0,3.49.88,3.49,2.98v.03c0,1.97-1.5,3.23-3.79,3.23-1.6,0-2.77-.53-3.73-1.4"/>
            <path d="M336.11,333.91l1.32-1.48c.75.64,1.49,1.01,2.38,1.01,1.02,0,1.67-.47,1.67-1.29v-.03c0-.8-.73-1.27-1.77-1.27-.63,0-1.2.16-1.67.34l-1.27-.79.29-4.59h6.12v1.8h-4.25l-.12,1.61c.4-.09.76-.16,1.31-.16,1.94,0,3.49.88,3.49,2.98v.03c0,1.97-1.5,3.23-3.79,3.23-1.6,0-2.77-.53-3.73-1.4"/>
          </g>
        </g>
        <g id="_3-4" data-name="3-4">
          <rect class="cls-4" x="361.62" y="63.3" width="126.81" height="39.88"/>
          <path class="cls-16" d="M404.51,71.71h41.44c6.85,0,12.4,5.19,12.4,11.59s-5.55,11.59-12.4,11.59h-41.44c-6.85,0-12.4-5.19-12.4-11.59s5.55-11.59,12.4-11.59"/>
          <path d="M413.42,86.58l1.51-1.34c.69.72,1.4,1.12,2.41,1.12.83,0,1.41-.44,1.41-1.13v-.03c0-.76-.73-1.18-1.95-1.18h-.92l-.34-1.31,2.38-2.24h-3.92v-1.76h6.74v1.55l-2.52,2.25c1.35.21,2.68.88,2.68,2.61v.03c0,1.76-1.37,3.05-3.59,3.05-1.8,0-3.03-.67-3.89-1.61"/>
          <path d="M433.44,86.01h-4.87l-.35-1.45,5.47-5.93h1.85v5.71h1.34v1.66h-1.34v2.01h-2.09v-2.01ZM433.44,84.35v-2.9l-2.65,2.9h2.65Z"/>
          <rect x="422.91" y="83.12" width="4.39" height="1.94"/>
        </g>
        <g id="_53-54" data-name="53-54">
          <rect class="cls-18" x="196.33" y="393.04" width="187.8" height="39.88"/>
          <g>
            <path class="cls-16" d="M269.51,401.4h41.44c6.85,0,12.4,5.19,12.4,11.59s-5.55,11.59-12.4,11.59h-41.44c-6.85,0-12.4-5.19-12.4-11.59s5.55-11.59,12.4-11.59"/>
            <rect x="290.3" y="412.61" width="4.39" height="1.94"/>
            <path d="M270.86,416.47l1.32-1.48c.75.64,1.49,1.01,2.38,1.01,1.02,0,1.67-.47,1.67-1.29v-.03c0-.8-.73-1.27-1.77-1.27-.63,0-1.2.16-1.67.34l-1.27-.79.29-4.59h6.12v1.8h-4.25l-.12,1.61c.4-.09.76-.16,1.31-.16,1.94,0,3.49.88,3.49,2.98v.03c0,1.97-1.5,3.23-3.79,3.23-1.6,0-2.77-.53-3.73-1.4"/>
            <path d="M295.78,416.47l1.32-1.48c.75.64,1.49,1.01,2.38,1.01,1.02,0,1.67-.47,1.67-1.29v-.03c0-.8-.73-1.27-1.77-1.27-.63,0-1.2.16-1.67.34l-1.27-.79.29-4.59h6.12v1.8h-4.25l-.12,1.61c.4-.09.76-.16,1.31-.16,1.94,0,3.49.88,3.49,2.98v.03c0,1.97-1.5,3.23-3.79,3.23-1.6,0-2.77-.53-3.73-1.4"/>
            <path d="M279.97,416.18l1.51-1.35c.69.72,1.4,1.12,2.41,1.12.83,0,1.41-.44,1.41-1.13v-.03c0-.76-.73-1.19-1.95-1.19h-.92l-.34-1.31,2.38-2.24h-3.92v-1.76h6.74v1.55l-2.52,2.25c1.35.21,2.68.88,2.68,2.61v.03c0,1.76-1.37,3.05-3.59,3.05-1.8,0-3.03-.67-3.89-1.61"/>
            <path d="M309.67,415.7h-4.87l-.35-1.45,5.47-5.93h1.85v5.71h1.34v1.66h-1.34v2.01h-2.09v-2.01ZM309.67,414.04v-2.91l-2.65,2.91h2.65Z"/>
          </g>
        </g>
        <g id="Sqaure" class="cls-15">
          <g class="cls-20">
            <g class="cls-7">
              <rect class="cls-16" x=".57" y="582.66" width="327.72" height="89.57"/>
            </g>
          </g>
        </g>
        <g id="C-K">
          <g class="cls-15">
            <g class="cls-17">
              <g class="cls-13">
                <rect class="cls-16" x="1144.47" y="610.19" width="114.61" height="62.18"/>
              </g>
            </g>
          </g>
          <path d="M1182.67,629.17c0-2.87-2.27-5.2-5.06-5.2-.76,0-1.48.17-2.13.48-.87-1.56-2.51-2.61-4.39-2.61s-3.51,1.05-4.39,2.6c-.65-.31-1.37-.48-2.13-.48-2.79,0-5.06,2.32-5.07,5.2,0,2.86,2.24,5.17,5.01,5.2v5.08s13.14,0,13.14,0v-5.08c2.78-.03,5.01-2.35,5.02-5.2"/>
          <rect x="1164.5" y="640.09" width="13.16" height="2.11"/>
        </g>
        <g id="T-WR-2">
          <g class="cls-15">
            <g class="cls-3">
              <g class="cls-11">
                <rect class="cls-16" x="1072.95" y="610.19" width="66.51" height="62.18"/>
              </g>
            </g>
          </g>
          <path d="M1094.08,625.86c1.21,0,2.19-.92,2.19-2.05s-.98-2.04-2.19-2.04-2.19.92-2.19,2.04.98,2.05,2.19,2.05"/>
          <path d="M1095.83,626.62h-3.49c-1.11,0-2,.84-2,1.87l.33,5.66c0,.83.57,1.53,1.37,1.78.13.04.23.15.23.28l.5,7.04c.04.64.62,1.14,1.31,1.14s1.26-.5,1.31-1.14l.5-7.04c0-.13.1-.24.23-.28.8-.25,1.37-.95,1.37-1.78l.33-5.66c0-1.04-.9-1.87-2-1.87"/>
          <path d="M1115.51,629c1.21,0,2.19-.92,2.19-2.05s-.98-2.04-2.19-2.04-2.19.92-2.19,2.04.98,2.05,2.19,2.05"/>
          <path d="M1121.68,639.74c-.58,1.68-2.27,2.9-4.26,2.9-2.47,0-4.47-1.88-4.47-4.18,0-.9.3-1.73.81-2.41l-.6-1.88c-1.23,1.07-2,2.59-2,4.29,0,3.23,2.8,5.85,6.26,5.85,2.42,0,4.53-1.29,5.57-3.18l-.66-1.33-.64-.06Z"/>
          <path d="M1126.88,643.07l-2.2-5.75c-.15-.38-.51-.64-.94-.68l-4.12-.39c-.14-.01-.26-.11-.29-.24-.01-.04-.02-.09-.04-.13l-1.45-4.52c-.37-1.15-1.32-1.65-2.91-1.47-1.1.12-2.13.99-1.74,2.19l1.61,5.05c.28.88,1.1,1.47,2.02,1.55h0s5.94.53,5.94.53l2.26,4.54c.16.33.5.55.89.56.7.01,1.19-.63.95-1.24"/>
          <path d="M1103.7,625.86c1.21,0,2.19-.92,2.19-2.05s-.98-2.04-2.19-2.04-2.19.92-2.19,2.04.98,2.05,2.19,2.05"/>
          <path d="M1106.04,632.53v-3.72c0-1.21-1.05-2.19-2.34-2.19s-2.34.98-2.34,2.19v3.72l-2.49,4.64c-.22.4-.13.9.22,1.21.78.71,1.85,1.23,3.06,1.47.15.03.25.15.26.29l.2,3.26c.03.52.46.96,1.01,1,.61.04,1.14-.39,1.17-.96l.2-3.29c0-.14.12-.26.26-.29,1.22-.24,2.28-.76,3.07-1.47.35-.31.43-.8.22-1.21l-2.49-4.64Z"/>
        </g>
        <g id="T-WR-1">
          <g class="cls-15">
            <g class="cls-1">
              <g class="cls-2">
                <rect class="cls-16" x="331.99" y="582.66" width="63.01" height="89.71"/>
              </g>
            </g>
          </g>
          <path d="M351.24,595.39c1.21,0,2.19-.92,2.19-2.05s-.98-2.04-2.19-2.04-2.19.92-2.19,2.04.98,2.05,2.19,2.05"/>
          <path d="M352.99,596.15h-3.49c-1.11,0-2,.84-2,1.87l.33,5.66c0,.83.57,1.53,1.37,1.78.13.04.23.15.23.28l.5,7.04c.05.64.62,1.14,1.31,1.14s1.26-.5,1.31-1.14l.5-7.04c0-.13.1-.24.23-.28.8-.25,1.37-.95,1.37-1.78l.33-5.66c0-1.04-.9-1.87-2-1.87"/>
          <path d="M372.67,598.53c1.21,0,2.19-.92,2.19-2.05s-.98-2.04-2.19-2.04-2.19.92-2.19,2.04.98,2.05,2.19,2.05"/>
          <path d="M378.84,609.27c-.58,1.68-2.27,2.9-4.26,2.9-2.47,0-4.47-1.88-4.47-4.18,0-.9.3-1.73.81-2.41l-.6-1.88c-1.23,1.07-2,2.59-2,4.29,0,3.23,2.8,5.85,6.26,5.85,2.42,0,4.53-1.29,5.57-3.18l-.66-1.33-.64-.06Z"/>
          <path d="M384.04,612.6l-2.2-5.75c-.15-.38-.51-.64-.94-.68l-4.11-.39c-.14-.01-.26-.11-.29-.24-.01-.05-.02-.09-.04-.13l-1.45-4.52c-.37-1.15-1.32-1.65-2.91-1.47-1.1.12-2.13.99-1.74,2.19l1.61,5.05c.28.88,1.1,1.47,2.02,1.55h0s5.94.53,5.94.53l2.27,4.54c.16.33.5.55.89.56.7.01,1.19-.63.95-1.24"/>
          <path d="M360.86,595.39c1.21,0,2.19-.92,2.19-2.05s-.98-2.04-2.19-2.04-2.19.92-2.19,2.04.98,2.05,2.19,2.05"/>
          <path d="M363.2,602.06v-3.72c0-1.21-1.05-2.19-2.34-2.19s-2.34.98-2.34,2.19v3.72l-2.49,4.64c-.22.4-.13.9.22,1.21.78.71,1.85,1.23,3.06,1.47.15.03.25.15.26.29l.2,3.26c.03.52.46.96,1.01,1,.61.04,1.14-.39,1.17-.96l.2-3.29c0-.14.12-.26.26-.29,1.22-.24,2.28-.76,3.07-1.47.35-.31.43-.8.22-1.21l-2.49-4.64Z"/>
        </g>
        <g id="I-D">
          <rect class="cls-21" x="1286.77" y="216.43" width="37.54" height="51.75"/>
          <path d="M1305.55,232.93c1.18,0,2.14.9,2.14,2s-.96,2-2.14,1.99c-1.18,0-2.14-.9-2.14-2,0-1.1.96-2,2.14-2"/>
          <polygon points="1309.27 249.91 1309.27 249.91 1301.8 249.9 1301.8 246.91 1303.4 246.91 1303.41 240.92 1301.8 240.92 1301.8 237.92 1307.68 237.92 1307.68 240.92 1307.67 246.91 1309.28 246.91 1309.27 249.91"/>
        </g>
      </g>
    </g>
  </g>
</svg>